<svg width="55" height="53" viewBox="0 0 55 53" fill="none" xmlns="http://www.w3.org/2000/svg">
<path d="M54.8938 29.0503C54.4 24.064 52.1809 19.3632 48.6452 15.8136C45.6236 12.7804 41.9252 10.8312 38.0337 9.9645V7.22451C39.6231 6.82755 40.8046 5.38325 40.8046 3.66655C40.8046 1.64477 39.1662 0 37.1522 0H29.4177C27.4037 0 25.7653 1.64477 25.7653 3.66655C25.7653 5.38314 26.9467 6.82744 28.5361 7.22451V9.97216C24.6565 10.8425 20.9703 12.789 17.9573 15.8137C17.298 16.4756 16.6899 17.17 16.1334 17.8917C16.1064 17.8896 16.0795 17.8876 16.052 17.8876H8.39685C7.80366 17.8876 7.32262 18.3704 7.32262 18.966C7.32262 19.5616 7.80366 20.0444 8.39685 20.0444H14.6717C13.884 21.3681 13.249 22.7583 12.7655 24.1893H1.07411C0.48092 24.1893 -0.00012207 24.6721 -0.00012207 25.2677C-0.00012207 25.8633 0.48092 26.3461 1.07411 26.3461H12.1585C11.8489 27.7104 11.6712 29.0988 11.6254 30.4911H6.87498C6.28179 30.4911 5.80075 30.9739 5.80075 31.5695C5.80075 32.1651 6.28179 32.6479 6.87498 32.6479H11.6596C11.7503 34.0438 11.9738 35.4324 12.3304 36.793H5.37105C4.77786 36.793 4.29682 37.2758 4.29682 37.8714C4.29682 38.467 4.77786 38.9498 5.37105 38.9498H13.016C14.0698 41.7483 15.7167 44.3713 17.9573 46.6206C21.4965 50.1735 26.184 52.4017 31.1562 52.8949C31.8659 52.9652 32.576 53 33.2853 53C37.4771 53 41.6157 51.7822 45.1274 49.4865C45.6246 49.1614 45.7652 48.4934 45.4414 47.9943C45.1176 47.4952 44.4521 47.354 43.955 47.6791C36.2681 52.7041 25.9734 51.6176 19.4765 45.0956C11.8535 37.443 11.8535 24.9915 19.4765 17.3389C27.0994 9.68649 39.5028 9.68649 47.1259 17.3389C53.6142 23.8524 54.7024 34.1782 49.7133 41.8911C49.3902 42.3906 49.5317 43.0586 50.0291 43.3829C50.5269 43.7072 51.1921 43.5652 51.5151 43.0657C54.1807 38.9446 55.3807 33.9673 54.8938 29.0503ZM27.9138 3.66666C27.9138 2.83414 28.5884 2.1569 29.4177 2.1569H37.1522C37.9815 2.1569 38.6561 2.83414 38.6561 3.66666C38.6561 4.49918 37.9815 5.17642 37.1522 5.17642H36.9595H29.6103H29.4177C28.5884 5.17642 27.9138 4.49907 27.9138 3.66666ZM30.6845 9.6014V7.33321H35.8852V9.59752C34.1583 9.39133 32.4112 9.39263 30.6845 9.6014Z" fill="#3035C4"/>
<path d="M47.886 44.7792C47.6025 44.7792 47.3264 44.8946 47.1267 45.0951C46.9259 45.2957 46.8119 45.5739 46.8119 45.8575C46.8119 46.1412 46.9259 46.4194 47.1267 46.62C47.3264 46.8216 47.6026 46.9359 47.886 46.9359C48.1686 46.9359 48.4446 46.8216 48.6455 46.62C48.8453 46.4194 48.9602 46.1412 48.9602 45.8575C48.9602 45.5739 48.8454 45.2957 48.6455 45.0951C48.4446 44.8946 48.1684 44.7792 47.886 44.7792Z" fill="#3035C4"/>
<path d="M33.3016 14.488C24.1128 14.488 16.6371 21.9926 16.6371 31.2171C16.6371 40.4416 24.1128 47.9462 33.3016 47.9462C42.4904 47.9462 49.9661 40.4416 49.9661 31.2171C49.9661 21.9926 42.4904 14.488 33.3016 14.488ZM33.3016 45.7894C25.2973 45.7894 18.7856 39.2522 18.7856 31.2171C18.7856 23.182 25.2973 16.6448 33.3016 16.6448C41.3058 16.6448 47.8176 23.182 47.8176 31.2171C47.8176 39.2522 41.3058 45.7894 33.3016 45.7894Z" fill="#3035C4"/>
<path d="M40.0965 22.8705L34.7758 28.2117C34.3309 27.9909 33.8304 27.8661 33.3013 27.8661C32.7722 27.8661 32.2718 27.9909 31.8268 28.2117L29.4456 25.8212C29.026 25.4001 28.346 25.4001 27.9263 25.8212C27.5068 26.2423 27.5068 26.9252 27.9263 27.3463L30.3076 29.7368C30.0875 30.1834 29.9633 30.6859 29.9633 31.217C29.9633 33.0647 31.4606 34.568 33.3013 34.568C35.142 34.568 36.6394 33.0647 36.6394 31.217C36.6394 30.6859 36.5151 30.1834 36.2951 29.7368L41.4596 24.5523L41.6157 24.3956C42.0352 23.9745 42.0352 23.2916 41.6157 22.8705C41.1962 22.4494 40.5162 22.4494 40.0965 22.8705ZM33.3013 32.4113C32.6454 32.4113 32.1117 31.8756 32.1117 31.2171C32.1117 30.5586 32.6454 30.0229 33.3013 30.0229C33.9573 30.0229 34.4909 30.5586 34.4909 31.2171C34.4909 31.8756 33.9573 32.4113 33.3013 32.4113Z" fill="#E6514A"/>
<path d="M44.7865 30.1519H43.7913C43.1982 30.1519 42.7172 30.6346 42.7172 31.2302C42.7172 31.8258 43.1982 32.3086 43.7913 32.3086H44.7865C45.3797 32.3086 45.8607 31.8258 45.8607 31.2302C45.8607 30.6346 45.3797 30.1519 44.7865 30.1519Z" fill="#3035C4"/>
<path d="M22.811 30.1255H21.8158C21.2226 30.1255 20.7416 30.6083 20.7416 31.2039C20.7416 31.7994 21.2226 32.2822 21.8158 32.2822H22.811C23.4042 32.2822 23.8853 31.7994 23.8853 31.2039C23.8853 30.6083 23.4042 30.1255 22.811 30.1255Z" fill="#3035C4"/>
<path d="M33.3143 21.7643C33.9075 21.7643 34.3885 21.2815 34.3885 20.6859V19.6869C34.3885 19.0913 33.9075 18.6085 33.3143 18.6085C32.7211 18.6085 32.2401 19.0913 32.2401 19.6869V20.6859C32.2401 21.2815 32.7211 21.7643 33.3143 21.7643Z" fill="#3035C4"/>
<path d="M33.2885 40.6698C32.6953 40.6698 32.2142 41.1526 32.2142 41.7482V42.7472C32.2142 43.3428 32.6953 43.8256 33.2885 43.8256C33.8816 43.8256 34.3627 43.3428 34.3627 42.7472V41.7482C34.3627 41.1526 33.8816 40.6698 33.2885 40.6698Z" fill="#3035C4"/>
<path d="M1.0741 36.7926C0.791577 36.7926 0.514429 36.908 0.314624 37.1086C0.114819 37.3091 -0.00012207 37.5874 -0.00012207 37.871C-0.00012207 38.1557 0.114712 38.4328 0.314624 38.6334C0.514536 38.834 0.791577 38.9493 1.0741 38.9493C1.35662 38.9493 1.63376 38.834 1.83346 38.6334C2.03327 38.4328 2.14832 38.1546 2.14832 37.871C2.14832 37.5874 2.03337 37.3091 1.83346 37.1086C1.63376 36.908 1.35662 36.7926 1.0741 36.7926Z" fill="#3035C4"/>
</svg>
