<svg width="60" height="59" viewBox="0 0 60 59" fill="none" xmlns="http://www.w3.org/2000/svg">
<path d="M58.5533 18.523C57.6245 17.6024 56.3662 17.0854 55.0542 17.0854C53.7423 17.0854 52.484 17.6024 51.5552 18.523L35.4598 34.515C35.3612 34.6112 35.2849 34.7276 35.2362 34.8562L31.7366 43.8959C31.6678 44.0735 31.6522 44.2671 31.6919 44.4532C31.7315 44.6393 31.8247 44.81 31.96 44.9446C32.0954 45.0792 32.2671 45.1719 32.4544 45.2114C32.6417 45.251 32.8366 45.2357 33.0153 45.1674L42.1125 41.6933C42.242 41.6444 42.3594 41.5686 42.457 41.4711L58.5533 25.4762C59.4798 24.5534 60.0002 23.3031 60.0002 21.9996C60.0002 20.6961 59.4798 19.4458 58.5533 18.523ZM39.9837 40.3992L37.9618 41.1711L35.7617 38.9842L36.5386 36.9762L39.9837 40.3992ZM40.3608 37.992L53.6543 24.78L55.0547 26.1704L41.7573 39.3834L40.3608 37.992ZM38.9614 36.6016L37.561 35.2102L50.8555 21.9991L52.2559 23.3905L38.9614 36.6016ZM34.9838 40.9932L35.9408 41.944L34.386 42.534L34.9838 40.9932ZM57.1529 24.0857L56.4532 24.781L52.2559 20.6087L52.9556 19.9135C53.5125 19.3602 54.2677 19.0494 55.0552 19.0494C55.8428 19.0494 56.598 19.3602 57.1549 19.9135C57.7117 20.4667 58.0246 21.2171 58.0246 21.9996C58.0246 22.7821 57.7117 23.5325 57.1549 24.0857H57.1529Z" fill="#3035C4"/>
<path d="M8.90712 9.83331H13.8556C14.643 9.83331 15.3982 9.52251 15.955 8.96928C16.5118 8.41605 16.8246 7.66571 16.8246 6.88332V1.96666H43.5463C44.3337 1.96666 45.0889 2.27746 45.6457 2.8307C46.2026 3.38393 46.5154 4.13427 46.5154 4.91666V18.6769C46.5154 19.2235 46.9585 19.6666 47.5051 19.6666C48.0517 19.6666 48.4948 19.2235 48.4948 18.6769V4.91666C48.4932 3.61316 47.9713 2.36349 47.0436 1.44178C46.116 0.520066 44.8582 0.00156139 43.5463 0H15.835C15.5725 5.56933e-05 15.3208 0.103693 15.1352 0.288116L7.21771 8.15477C7.0321 8.33913 6.92779 8.58921 6.92773 8.84998V13.7603C6.92773 14.3069 7.37083 14.75 7.91743 14.75C8.46402 14.75 8.90712 14.3069 8.90712 13.7603V9.83331ZM13.8556 7.86665H10.3065L14.8453 3.35709V6.88332C14.8453 7.14411 14.741 7.39423 14.5554 7.57864C14.3698 7.76305 14.1181 7.86665 13.8556 7.86665Z" fill="#3035C4"/>
<path d="M46.5153 46.2167C46.5153 46.9991 46.2024 47.7495 45.6456 48.3027C45.0888 48.8559 44.3336 49.1667 43.5462 49.1667H32.6533C32.1102 49.1667 31.6699 49.607 31.6699 50.1501C31.6699 50.6932 32.1102 51.1334 32.6533 51.1334H43.5462C44.8581 51.1319 46.1159 50.6134 47.0435 49.6916C47.9712 48.7699 48.4931 47.5202 48.4946 46.2167V40.3231C48.4946 39.7765 48.0515 39.3334 47.5049 39.3334C46.9584 39.3334 46.5153 39.7765 46.5153 40.3231V46.2167Z" fill="#3035C4"/>
<path d="M10.8867 28.5167C10.8867 27.9736 11.3334 27.5333 11.8764 27.5333C12.4195 27.5333 12.8661 27.9736 12.8661 28.5167C12.8661 29.0597 12.4195 29.5 11.8764 29.5C11.3334 29.5 10.8867 29.0597 10.8867 28.5167Z" fill="#3035C4"/>
<path d="M16.8247 28.5167C16.8247 27.9736 17.2713 27.5333 17.8144 27.5333C18.3575 27.5333 18.8041 27.9736 18.8041 28.5167C18.8041 29.0597 18.3575 29.5 17.8144 29.5C17.2713 29.5 16.8247 29.0597 16.8247 28.5167Z" fill="#3035C4"/>
<path d="M25.7419 41.4573C26.5753 40.9819 27.279 40.3112 27.7919 39.5037C28.3047 38.6962 28.6111 37.7763 28.6842 36.8243C28.7574 35.8722 28.5952 34.9168 28.2118 34.0413C27.8283 33.1658 27.2352 32.3967 26.4841 31.801C26.6372 31.3782 26.7175 30.9327 26.7217 30.4833C26.721 29.6118 26.4291 28.7652 25.8917 28.0764C25.3543 27.3877 24.6019 26.8957 23.7526 26.6778V23.6C23.7526 21.2528 22.8141 19.0018 21.1437 17.3421C19.4733 15.6824 17.2077 14.75 14.8454 14.75C12.483 14.75 10.2174 15.6824 8.54701 17.3421C6.87658 19.0018 5.93815 21.2528 5.93815 23.6V26.6778C5.08886 26.8957 4.33646 27.3877 3.79906 28.0764C3.26167 28.7652 2.96973 29.6118 2.96907 30.4833C2.97406 30.9358 3.05431 31.3844 3.2066 31.8108C2.4557 32.4056 1.86267 33.1738 1.47924 34.0486C1.09581 34.9233 0.933621 35.878 1.00682 36.8294C1.08003 37.7807 1.3864 38.6998 1.89921 39.5065C2.41202 40.3132 3.1157 40.9829 3.94887 41.4573C2.73874 42.263 1.74595 43.3513 1.05749 44.6267C0.36904 45.9022 0.00593578 47.326 0 48.7733V58.0167C0 58.2775 0.104271 58.5276 0.289874 58.712C0.475477 58.8964 0.727209 59 0.989691 59H28.701C28.9635 59 29.2153 58.8964 29.4009 58.712C29.5865 58.5276 29.6907 58.2775 29.6907 58.0167V48.7733C29.6848 47.326 29.3217 45.9022 28.6332 44.6267C27.9448 43.3513 26.952 42.263 25.7419 41.4573ZM22.7629 28.5167C23.2874 28.5182 23.7899 28.7259 24.1608 29.0944C24.5317 29.4629 24.7407 29.9622 24.7423 30.4833C24.7362 30.5961 24.7197 30.708 24.6928 30.8177C24.45 30.7307 24.2021 30.6585 23.9505 30.6013L23.5546 32.5287C24.4709 32.7132 25.2915 33.2146 25.8708 33.9436C26.45 34.6727 26.7503 35.5822 26.7182 36.5105C26.6862 37.4388 26.3239 38.3257 25.6957 39.0136C25.0675 39.7015 24.2142 40.1458 23.2874 40.2675L18.8041 38.645V36.3047C20.0062 35.6145 21.0047 34.6226 21.6995 33.4284C22.3942 32.2341 22.761 30.8794 22.7629 29.5V28.5167ZM17.4779 40.2577L18.1707 40.5035C17.1414 41.027 16.0017 41.3 14.8454 41.3C13.6891 41.3 12.5493 41.027 11.52 40.5035L12.2128 40.2577C12.4047 40.1899 12.5707 40.0646 12.6877 39.899C12.8048 39.7334 12.8671 39.5357 12.866 39.3333V37.111C14.1633 37.4519 15.5275 37.4519 16.8247 37.111V39.3333C16.8237 39.5357 16.886 39.7334 17.003 39.899C17.12 40.0646 17.286 40.1899 17.4779 40.2577ZM14.8454 35.4C13.2705 35.4 11.7601 34.7784 10.6465 33.6719C9.53284 32.5655 8.90722 31.0648 8.90722 29.5V26.55H11.7377C12.5531 26.5519 13.3561 26.3524 14.0748 25.9697C14.7934 25.587 15.405 25.0329 15.8549 24.3572L15.9934 24.1605L16.9435 25.1143C17.4037 25.5709 17.9501 25.9327 18.5513 26.1791C19.1525 26.4254 19.7967 26.5515 20.447 26.55H20.7835V29.5C20.7835 31.0648 20.1579 32.5655 19.0443 33.6719C17.9307 34.7784 16.4203 35.4 14.8454 35.4ZM7.91753 23.6C7.91753 21.7744 8.64742 20.0236 9.94665 18.7327C11.2459 17.4419 13.008 16.7167 14.8454 16.7167C16.6827 16.7167 18.4449 17.4419 19.7441 18.7327C21.0433 20.0236 21.7732 21.7744 21.7732 23.6V24.5833H20.447C19.6598 24.5826 18.9051 24.2714 18.3489 23.718L16.5377 21.9185C16.4321 21.8172 16.306 21.7394 16.1678 21.6902C16.0296 21.6411 15.8824 21.6217 15.7361 21.6333C15.59 21.6485 15.4491 21.6961 15.3241 21.7727C15.199 21.8493 15.0929 21.9529 15.0136 22.0758L14.212 23.2657C13.9414 23.6715 13.5737 24.0043 13.1419 24.2342C12.7101 24.4642 12.2277 24.5841 11.7377 24.5833H7.91753V23.6ZM2.96907 36.3833C2.97082 35.4786 3.28542 34.6019 3.86018 33.9002C4.43494 33.1984 5.23494 32.7142 6.12619 32.5287L5.73031 30.6013C5.4816 30.6571 5.23693 30.7294 4.99794 30.8177C4.97108 30.708 4.95451 30.5961 4.94846 30.4833C4.95002 29.9622 5.15907 29.4629 5.52993 29.0944C5.9008 28.7259 6.40336 28.5182 6.92784 28.5167V29.5C6.92976 30.8794 7.29649 32.2341 7.99127 33.4284C8.68606 34.6226 9.68451 35.6145 10.8866 36.3047V38.645L6.4033 40.2675C5.45576 40.1402 4.58642 39.677 3.95537 38.9633C3.32432 38.2496 2.97405 37.3333 2.96907 36.3833ZM13.8557 57.0333H1.97938V48.7733C1.9835 47.3609 2.42298 45.9836 3.23868 44.8268C4.05438 43.67 5.20715 42.7892 6.54186 42.303L8.61031 41.5557L13.8557 48.5078V57.0333ZM12.0643 42.8537C13.8769 43.4043 15.8138 43.4043 17.6264 42.8537L14.8454 46.5412L12.0643 42.8537ZM27.7114 57.0333H15.8351V48.5078L21.0804 41.5557L23.1489 42.303C24.4836 42.7892 25.6364 43.67 26.4521 44.8268C27.2678 45.9836 27.7072 47.3609 27.7114 48.7733V57.0333Z" fill="#3035C4"/>
<path fill-rule="evenodd" clip-rule="evenodd" d="M41.162 11.7956C41.5466 11.4134 42.1677 11.4134 42.5524 11.7956C42.9406 12.1813 42.9406 12.8093 42.5524 13.195L41.7325 14.0096C42.4115 15.029 42.6853 16.2625 42.5008 17.471C42.3163 18.6795 41.6866 19.7769 40.7339 20.5503C39.7812 21.3237 38.5734 21.718 37.3447 21.6567C36.116 21.5953 34.954 21.0828 34.0841 20.2185C33.2142 19.3542 32.6983 18.1996 32.6366 16.9788C32.6006 16.2655 32.7211 15.5592 32.9828 14.9064L34.6652 16.3284C34.6226 16.6475 34.6326 16.9732 34.6964 17.2923C34.811 17.8645 35.0938 18.3902 35.509 18.8027C35.9242 19.2153 36.4533 19.4962 37.0292 19.6101C37.6052 19.7239 38.2021 19.6655 38.7447 19.4422C39.2872 19.2189 39.7509 18.8408 40.0771 18.3557C40.4034 17.8706 40.5775 17.3002 40.5775 16.7168C40.5758 16.2787 40.4743 15.8467 40.2806 15.4532L38.2694 17.4501C38.6206 16.9078 38.5223 16.176 38.0158 15.7479L37.5659 15.3677L38.8802 14.0618C38.4841 13.8693 38.0493 13.7685 37.6084 13.7668C37.0897 13.7668 36.5813 13.9018 36.1331 14.1567L34.5608 12.8278C35.2234 12.3197 36.0097 11.9824 36.8493 11.8558C38.0657 11.6725 39.3072 11.9446 40.3331 12.6192L41.162 11.7956Z" fill="#E6514A"/>
<path d="M20.7837 6.88336C20.7837 6.34028 21.2303 5.90002 21.7734 5.90002C22.3165 5.90002 22.7631 6.34028 22.7631 6.88336C22.7631 7.42644 22.3165 7.8667 21.7734 7.8667C21.2303 7.8667 20.7837 7.42644 20.7837 6.88336Z" fill="#3035C4"/>
<path d="M24.7422 6.88336C24.7422 6.34028 25.1824 5.90002 25.7255 5.90002H31.6764C32.2195 5.90002 32.6597 6.34028 32.6597 6.88336C32.6597 7.42644 32.2195 7.8667 31.6764 7.8667H25.7255C25.1824 7.8667 24.7422 7.42644 24.7422 6.88336Z" fill="#3035C4"/>
<path d="M20.7837 10.8167C20.7837 10.2736 21.2239 9.83337 21.767 9.83337H31.6766C32.2197 9.83337 32.66 10.2736 32.66 10.8167C32.66 11.3598 32.2197 11.8 31.6766 11.8H21.767C21.2239 11.8 20.7837 11.3598 20.7837 10.8167Z" fill="#3035C4"/>
<path d="M26.7217 20.65C26.7217 20.1069 27.1619 19.6666 27.705 19.6666H29.6971C30.2402 19.6666 30.6804 20.1069 30.6804 20.65C30.6804 21.193 30.2402 21.6333 29.6971 21.6333H27.705C27.1619 21.6333 26.7217 21.193 26.7217 20.65Z" fill="#3035C4"/>
<path d="M24.7422 16.7167C24.7422 16.1737 25.1824 15.7334 25.7255 15.7334H29.697C30.2401 15.7334 30.6804 16.1737 30.6804 16.7167C30.6804 17.2598 30.2401 17.7001 29.697 17.7001H25.7255C25.1824 17.7001 24.7422 17.2598 24.7422 16.7167Z" fill="#3035C4"/>
<path d="M33.6348 13.751C33.9853 13.3362 34.6058 13.2842 35.0205 13.6348L38.0537 16.1985C38.4684 16.5491 38.5205 17.1696 38.1699 17.5843C37.8193 17.9991 37.1989 18.0511 36.7841 17.7005L33.751 15.1368C33.3362 14.7862 33.2842 14.1658 33.6348 13.751Z" fill="#E6514A"/>
<path d="M40.8933 13.3164C41.2836 13.694 41.294 14.3165 40.9165 14.7069L38.1556 17.5617C37.778 17.9521 37.1555 17.9625 36.7651 17.585C36.3748 17.2074 36.3643 16.5849 36.7419 16.1945L39.5028 13.3397C39.8804 12.9493 40.5029 12.9389 40.8933 13.3164Z" fill="#E6514A"/>
</svg>
