<svg width="44" height="57" viewBox="0 0 44 57" fill="none" xmlns="http://www.w3.org/2000/svg">
<path d="M43.5427 23.2019C44.1525 22.2193 44.1525 20.9986 43.5425 20.0162L42.3393 18.0783C42.1809 17.8229 42.1196 17.5196 42.1669 17.2244L42.5256 14.9864C42.7084 13.8458 42.2313 12.7155 41.2808 12.0363L39.4162 10.7041C39.1697 10.5279 38.9945 10.2708 38.9227 9.97982L38.3797 7.77563C38.104 6.656 37.2246 5.79232 36.0848 5.52134L33.8407 4.98786C33.5444 4.91739 33.2824 4.74527 33.1033 4.50313L31.7468 2.67123C31.0554 1.73763 29.9045 1.26882 28.7436 1.44851L26.4643 1.80075C26.1637 1.84717 25.8549 1.78706 25.5951 1.63142L23.6218 0.449335C22.6214 -0.149834 21.3787 -0.149723 20.3784 0.449335L18.4053 1.63109C18.1455 1.78683 17.8369 1.84673 17.536 1.80042L15.2573 1.44817C14.0965 1.26871 12.9455 1.73729 12.2541 2.67089L10.8978 4.50235C10.7184 4.74449 10.4566 4.91661 10.1602 4.98708L7.9161 5.52045C6.77644 5.7912 5.8969 6.655 5.62103 7.77452L5.07789 9.97882C5.00614 10.2698 4.83103 10.5271 4.58439 10.7031L2.71934 12.0355C1.76884 12.7145 1.2919 13.8447 1.47449 14.9853L1.83311 17.2242C1.88037 17.5195 1.81917 17.8228 1.66072 18.078L0.457355 20.0163C-0.15243 20.9989 -0.15243 22.2195 0.457468 23.2019L1.6606 25.14C1.81906 25.3953 1.88037 25.6986 1.833 25.9938L1.47438 28.232C1.29156 29.3724 1.76862 30.5029 2.71911 31.182L4.58371 32.5141C4.83023 32.6901 5.00546 32.9474 5.07721 33.2384L5.62023 35.4426C5.89588 36.5622 6.77531 37.4259 7.91508 37.6969L8.8522 37.9197L2.51022 51.815C2.37545 52.1103 2.41274 52.4539 2.60803 52.7146C2.80321 52.9754 3.1259 53.1129 3.45323 53.0743L8.55615 52.4751L11.4958 56.6155C11.6679 56.8576 11.9486 56.9999 12.2457 56.9999C12.2741 56.9999 12.3029 56.9986 12.3315 56.996C12.6595 56.9657 12.9457 56.7643 13.0805 56.4692L19.5574 42.2772L20.3781 42.7687C20.8783 43.0683 21.439 43.218 21.9999 43.218C22.5607 43.218 23.1214 43.0682 23.6216 42.7687L24.4719 42.2595L30.957 56.4692C31.0918 56.7645 31.3778 56.9657 31.706 56.996C31.7346 56.9987 31.7633 57 31.7918 57C32.0888 57 32.3697 56.8577 32.5416 56.6156L35.4813 52.4752L40.5842 53.0745C40.9113 53.1126 41.2342 52.9755 41.4294 52.7148C41.6246 52.454 41.6621 52.1105 41.5272 51.8151L35.182 37.9121L36.0838 37.6978C37.2235 37.427 38.103 36.5632 38.3789 35.4437L38.922 33.2394C38.9938 32.9484 39.169 32.6911 39.4155 32.5151L41.2806 31.1827C42.2311 30.5037 42.708 29.3735 42.5254 28.233L42.1668 25.9941C42.1196 25.6987 42.1808 25.3955 42.3392 25.1403L43.5427 23.2019ZM12.0722 54.2867L9.74251 51.0054C9.54937 50.7333 9.21909 50.5877 8.88382 50.6273L4.83987 51.1023L10.618 38.4417C10.7236 38.5179 10.8184 38.6093 10.8965 38.715L12.2529 40.5469C12.3818 40.7209 12.5267 40.8787 12.6845 41.0192L9.64322 47.6829C9.43671 48.1357 9.64277 48.6671 10.1036 48.87C10.2251 48.9236 10.3522 48.9488 10.4771 48.9488C10.8264 48.9488 11.1601 48.7511 11.3121 48.4178L14.3426 41.7777C14.6408 41.8179 14.9479 41.8173 15.2561 41.7696L17.5354 41.4174C17.6719 41.3963 17.8098 41.3982 17.9441 41.42L12.0722 54.2867ZM39.1978 51.1021L35.1537 50.6273C34.8181 50.5878 34.4882 50.7333 34.2951 51.0054L31.9654 54.2867L26.091 41.415C26.2142 41.3986 26.3399 41.3986 26.4642 41.4177L28.7427 41.77C29.0634 41.8195 29.3829 41.8179 29.6924 41.7726L32.7253 48.418C32.8775 48.7515 33.2109 48.9491 33.5602 48.9491C33.6853 48.9491 33.8123 48.9238 33.9337 48.8703C34.3946 48.6674 34.6007 48.1358 34.3941 47.6832L31.3412 40.994C31.4885 40.8597 31.6246 40.7111 31.746 40.5472L33.1022 38.7158C33.1877 38.6003 33.2924 38.5014 33.4101 38.4213L39.1978 51.1021ZM41.9809 22.2666L40.7776 24.2049C40.3939 24.8232 40.2454 25.5578 40.36 26.2732L40.7186 28.512C40.794 28.9828 40.597 29.4494 40.2047 29.7297L38.3396 31.0622C37.7426 31.4888 37.318 32.1119 37.1444 32.8167L36.6012 35.021C36.4873 35.4831 36.1244 35.8397 35.6538 35.9516L33.4096 36.485C32.6919 36.6555 32.0574 37.0726 31.6231 37.659L30.2668 39.4905C29.9815 39.876 29.5065 40.0693 29.027 39.9952L26.7484 39.6429C26.0199 39.5304 25.2719 39.676 24.6423 40.053L22.6694 41.2348C22.2565 41.4819 21.7432 41.4819 21.3306 41.2348L19.3572 40.0529C18.8664 39.7589 18.3037 39.6057 17.7344 39.6057C17.5735 39.6057 17.4117 39.618 17.2514 39.6428L14.9719 39.995C14.4925 40.0692 14.0176 39.8756 13.7322 39.4903L12.3756 37.6584C11.9412 37.072 11.3069 36.655 10.5893 36.4844L8.34511 35.9509C7.87462 35.8391 7.51158 35.4826 7.39767 35.0203L6.85465 32.8162C6.68101 32.1112 6.25654 31.4879 5.65934 31.0613L3.79485 29.729C3.40245 29.4487 3.20558 28.982 3.28106 28.5112L3.63968 26.2731C3.75427 25.5575 3.60602 24.823 3.22213 24.2046L2.01899 22.2665C1.76726 21.8609 1.76726 21.3569 2.01899 20.9514L3.22235 19.0131C3.60613 18.3948 3.7545 17.6602 3.63991 16.9449L3.28129 14.706C3.20592 14.2352 3.40291 13.7687 3.79519 13.4883L5.66036 12.1558C6.25733 11.7292 6.68191 11.1061 6.85556 10.4013L7.39869 8.19701C7.5126 7.73488 7.87553 7.3783 8.34613 7.26641L10.5903 6.73304C11.308 6.56248 11.9425 6.14545 12.3767 5.55897L13.733 3.72751C14.0184 3.34209 14.4933 3.14849 14.9728 3.22275L17.2515 3.57499C17.98 3.68776 18.728 3.54192 19.3575 3.16486L21.3305 1.98311C21.7434 1.73596 22.2566 1.73596 22.6693 1.98311L24.6427 3.16497C25.2722 3.54215 26.0202 3.68788 26.7485 3.57521L29.0279 3.22297C29.5071 3.14916 29.9822 3.34242 30.2676 3.72773L31.6242 5.55964C32.0586 6.14601 32.693 6.56304 33.4105 6.7336L35.6547 7.26708C36.1252 7.37897 36.4882 7.73544 36.6021 8.19767L37.1452 10.4019C37.3188 11.1068 37.7433 11.7301 38.3405 12.1567L40.2051 13.4889C40.5975 13.7692 40.7944 14.2359 40.7189 14.7067L40.3603 16.9449C40.2457 17.6604 40.3939 18.3949 40.7778 19.0133L41.9809 20.9514C42.2328 21.357 42.2328 21.861 41.9809 22.2666Z" fill="#3035C4"/>
<path d="M29.4078 7.10222C23.0245 3.93403 15.3352 5.14539 10.2743 10.1164C4.3924 15.8937 3.80369 25.1057 8.90503 31.5443C9.08536 31.7719 9.35489 31.891 9.62737 31.891C9.82368 31.891 10.0215 31.8292 10.1884 31.7015C10.587 31.3968 10.6587 30.8325 10.3486 30.4409C5.8127 24.7162 6.33691 16.5246 11.5678 11.3867C16.0686 6.96562 22.9064 5.88818 28.5831 8.70557C29.0337 8.92956 29.5839 8.75166 29.8117 8.30891C30.0394 7.86615 29.8587 7.32588 29.4078 7.10222Z" fill="#3035C4"/>
<path d="M36.7104 14.2767C36.4826 13.8339 35.9328 13.6562 35.4817 13.8798C35.0309 14.1034 34.8499 14.6436 35.0776 15.0866C37.9439 20.6615 36.8464 27.3768 32.3466 31.7965C27.1156 36.9343 18.776 37.4491 12.9477 32.9941C12.5489 32.6895 11.9745 32.7598 11.6643 33.1512C11.3541 33.5428 11.4258 34.1071 11.8244 34.4118C14.8103 36.6943 18.3819 37.8169 21.9421 37.8169C26.1978 37.8169 30.4374 36.2125 33.6401 33.0667C38.6998 28.0971 39.9337 20.5459 36.7104 14.2767Z" fill="#3035C4"/>
<path d="M34.3475 10.8554C34.121 10.6036 33.883 10.3549 33.6401 10.1164C33.3972 9.87784 33.1441 9.64405 32.8877 9.42151C32.5092 9.09288 31.9312 9.12806 31.597 9.49977C31.2623 9.87138 31.2978 10.439 31.6763 10.7676C31.9047 10.9657 32.1302 11.1741 32.3467 11.3866C32.563 11.5993 32.7752 11.8207 32.977 12.045C33.1577 12.2459 33.4095 12.3484 33.6626 12.3484C33.8779 12.3484 34.0939 12.2741 34.2679 12.1232C34.6464 11.7948 34.682 11.2271 34.3475 10.8554Z" fill="#3035C4"/>
<path d="M32.7014 18.8141C32.4999 18.2047 31.9723 17.7792 31.3244 17.7038L25.8215 17.0628L23.5005 12.1204C23.2272 11.5386 22.6522 11.1771 21.9998 11.1771C21.3475 11.1771 20.7724 11.5386 20.4992 12.1204L18.1781 17.063L12.6752 17.7039C12.0273 17.7794 11.4996 18.2048 11.2982 18.8143C11.0967 19.4233 11.269 20.0723 11.7477 20.5072L15.8162 24.2028L14.7362 29.5414C14.6092 30.17 14.8581 30.7943 15.3859 31.1708C15.6771 31.3786 16.015 31.4838 16.355 31.4838C16.6314 31.4838 16.9091 31.4143 17.1643 31.274L21.9997 28.6156L26.8351 31.274C27.4045 31.5871 28.0858 31.5476 28.6136 31.1709C29.1414 30.7943 29.3903 30.1699 29.2632 29.5414L28.1832 24.2029L32.2517 20.5073C32.7307 20.0724 32.9029 19.4236 32.7014 18.8141ZM26.5657 23.2253C26.3322 23.4374 26.2277 23.7535 26.2896 24.0598L27.3947 29.5228L22.4464 26.8023C22.3077 26.726 22.1537 26.6879 21.9997 26.6879C21.8457 26.6879 21.6919 26.7259 21.553 26.8023L16.6047 29.5228L17.7098 24.0598C17.7719 23.7534 17.6673 23.4374 17.4337 23.2253L13.2704 19.4435L18.9019 18.7877C19.2177 18.7509 19.4914 18.5555 19.6247 18.272L21.9998 13.2142L24.3749 18.272C24.5082 18.5555 24.7818 18.7509 25.0977 18.7877L30.729 19.4435L26.5657 23.2253Z" fill="#E6514A"/>
</svg>
