<svg width="50" height="50" viewBox="0 0 50 50" fill="none" xmlns="http://www.w3.org/2000/svg">
<path d="M43.75 9.08203C44.2894 9.08203 44.7266 8.64482 44.7266 8.10547V2.92969C44.7266 1.31426 43.4123 0 41.7969 0H2.92969C1.31426 0 0 1.31426 0 2.92969V47.0703C0 48.6857 1.31426 50 2.92969 50H41.7969C43.4123 50 44.7266 48.6857 44.7266 47.0703V44.3359C44.7266 43.7966 44.2894 43.3594 43.75 43.3594C43.2106 43.3594 42.7734 43.7966 42.7734 44.3359V47.0703C42.7734 47.6088 42.3354 48.0469 41.7969 48.0469H2.92969C2.39121 48.0469 1.95312 47.6088 1.95312 47.0703V2.92969C1.95312 2.39121 2.39121 1.95312 2.92969 1.95312H41.7969C42.3354 1.95312 42.7734 2.39121 42.7734 2.92969V8.10547C42.7734 8.64482 43.2106 9.08203 43.75 9.08203Z" fill="#3035C4"/>
<path d="M39.0637 41.2116C38.5243 41.2116 38.0871 41.6488 38.0871 42.1882V43.3601H6.63999V33.4478C6.63999 32.9084 6.20278 32.4712 5.66341 32.4712C5.12404 32.4712 4.68683 32.9084 4.68683 33.4478V44.3367C4.68683 44.876 5.12404 45.3132 5.66341 45.3132H39.0637C39.6031 45.3132 40.0403 44.876 40.0403 44.3367V42.1882C40.0403 41.6488 39.6031 41.2116 39.0637 41.2116Z" fill="#3035C4"/>
<path d="M39.0637 4.6875H5.66341C5.12404 4.6875 4.68683 5.12471 4.68683 5.66408V26.0746C4.68683 26.6139 5.12404 27.0511 5.66341 27.0511C6.20278 27.0511 6.63999 26.6139 6.63999 26.0746V6.64066H38.0871V8.20318C38.0871 8.74255 38.5244 9.17976 39.0637 9.17976C39.6031 9.17976 40.0403 8.74255 40.0403 8.20318V5.66408C40.0403 5.12471 39.6031 4.6875 39.0637 4.6875Z" fill="#3035C4"/>
<path d="M6.35357 28.9976C6.17192 28.8159 5.92094 28.7114 5.66312 28.7114C5.40627 28.7114 5.15431 28.8159 4.97267 28.9976C4.79102 29.1792 4.68652 29.4312 4.68652 29.688C4.68652 29.9448 4.79102 30.1968 4.97267 30.3784C5.15431 30.5601 5.40627 30.6646 5.66312 30.6646C5.92094 30.6646 6.17192 30.5601 6.35357 30.3784C6.53619 30.1968 6.63971 29.9448 6.63971 29.688C6.63971 29.4312 6.53619 29.1792 6.35357 28.9976Z" fill="#3035C4"/>
<path d="M49.5511 20.4866C49.9815 19.8152 50.11 18.9882 49.9036 18.2179C49.6971 17.4476 49.1725 16.7957 48.464 16.4295C48.1568 16.2707 47.9687 15.9449 47.9848 15.5995C48.0218 14.8028 47.7197 14.0225 47.1558 13.4585C46.5919 12.8946 45.8118 12.592 45.0148 12.6295C44.6678 12.6463 44.3436 12.4574 44.1848 12.1503C43.8186 11.4419 43.1667 10.9172 42.3964 10.7107C41.6258 10.5042 40.7991 10.6328 40.1278 11.0632C39.8367 11.2499 39.4605 11.2498 39.1695 11.0632C38.4981 10.6327 37.6713 10.5043 36.9009 10.7107C36.1306 10.9172 35.4787 11.4419 35.1125 12.1503C34.9537 12.4575 34.6271 12.6451 34.2825 12.6295C33.4855 12.5923 32.7055 12.8946 32.1417 13.4585C31.5777 14.0225 31.2755 14.8028 31.3125 15.5994C31.3287 15.9449 31.1405 16.2707 30.8333 16.4295C30.1249 16.7957 29.6002 17.4475 29.3938 18.2179C29.2952 18.5854 29.2738 18.9658 29.3243 19.336H12.283C11.7437 19.336 11.3064 19.7732 11.3064 20.3126C11.3064 20.8519 11.7437 21.2891 12.283 21.2891H29.8233C29.8023 21.3428 29.7779 21.3954 29.7461 21.445C29.3157 22.1164 29.1872 22.9434 29.3937 23.7137C29.422 23.8195 29.4568 23.9228 29.4969 24.0236H12.2827C11.7434 24.0236 11.3062 24.4608 11.3062 25.0001C11.3062 25.5395 11.7434 25.9767 12.2827 25.9767H31.2542C31.2967 26.0884 31.318 26.2088 31.3123 26.3321C31.2752 27.1288 31.5774 27.9091 32.1414 28.4731C32.7052 29.0369 33.4852 29.3397 34.2822 29.3021C34.6272 29.2852 34.9534 29.4741 35.1122 29.7813C35.2295 30.0082 35.3765 30.216 35.5469 30.4008V39.5214C35.5469 39.916 35.7843 40.2717 36.1486 40.4232C36.5127 40.5747 36.9325 40.492 37.2122 40.2137L39.6485 37.7901L42.0848 40.2137C42.2715 40.3995 42.5204 40.498 42.7738 40.498C42.8999 40.498 43.0273 40.4735 43.1485 40.4231C43.5127 40.2716 43.7502 39.9159 43.7502 39.5213V30.4007C43.9206 30.216 44.0675 30.0082 44.1848 29.7812C44.3436 29.474 44.6698 29.2863 45.0148 29.302C45.8123 29.3397 46.5918 29.0369 47.1557 28.473C47.7197 27.909 48.0218 27.1287 47.9848 26.332C47.9687 25.9866 48.1569 25.6608 48.464 25.502C49.1724 25.1358 49.6971 24.484 49.9036 23.7136C50.11 22.9432 49.9815 22.1163 49.5511 21.4448C49.3644 21.1539 49.3644 20.7777 49.5511 20.4866ZM41.797 37.1724L40.3372 35.7203C39.9562 35.3413 39.3407 35.3413 38.9597 35.7203L37.5 37.1724V31.3137C38.0843 31.3413 38.6699 31.1885 39.1694 30.8684C39.4605 30.6817 39.8367 30.6818 40.1277 30.8684C40.589 31.1641 41.1236 31.3174 41.6629 31.3174C41.7076 31.3174 41.7523 31.3151 41.797 31.313V37.1724ZM48.0169 23.2082C47.9515 23.4525 47.7916 23.651 47.567 23.7671C46.5842 24.2752 45.9822 25.3176 46.0337 26.4229C46.0455 26.6756 45.9534 26.9132 45.7746 27.0921C45.5958 27.2709 45.3582 27.3627 45.1055 27.3512C43.9997 27.3 42.9579 27.9016 42.4497 28.8845C42.3336 29.1092 42.1351 29.269 41.8908 29.3344C41.6466 29.3997 41.3946 29.3608 41.1818 29.2242C40.716 28.9256 40.1823 28.7764 39.6484 28.7764C39.1147 28.7764 38.5808 28.9257 38.1151 29.2242C37.9022 29.3607 37.6503 29.3997 37.4061 29.3344C37.1618 29.269 36.9633 29.1091 36.8471 28.8845C36.339 27.9017 35.2974 27.2995 34.1913 27.3512C33.9392 27.3628 33.7011 27.2709 33.5222 27.0921C33.3433 26.9132 33.2513 26.6756 33.2632 26.4228C33.2994 25.6427 33.0091 24.8949 32.4902 24.3432C32.475 24.3265 32.4594 24.3101 32.443 24.2945C32.237 24.0856 31.9982 23.9059 31.7298 23.7671C31.5052 23.651 31.3455 23.4526 31.28 23.2082C31.2146 22.9639 31.2537 22.712 31.3902 22.4992C31.9874 21.5678 31.9874 20.364 31.3902 19.4326C31.2538 19.2197 31.2146 18.9678 31.28 18.7235C31.3455 18.4792 31.5053 18.2807 31.7299 18.1646C32.7128 17.6565 33.3146 16.6141 33.2633 15.5088C33.2514 15.2561 33.3435 15.0185 33.5223 14.8396C33.7012 14.6607 33.9392 14.5689 34.1914 14.5805C35.2974 14.6318 36.3392 14.0301 36.8472 13.0472C36.9633 12.8225 37.1619 12.6627 37.4062 12.5973C37.6504 12.5319 37.9023 12.5709 38.1151 12.7074C39.0467 13.3047 40.2505 13.3047 41.1818 12.7074C41.3946 12.571 41.6464 12.5318 41.8908 12.5973C42.1351 12.6627 42.3335 12.8226 42.4497 13.0472C42.9579 14.03 44.0002 14.6321 45.1055 14.5805C45.3583 14.569 45.5958 14.6607 45.7746 14.8396C45.9535 15.0185 46.0455 15.2561 46.0337 15.5088C45.9823 16.614 46.5841 17.6565 47.5671 18.1646C47.7917 18.2807 47.9515 18.4791 48.0169 18.7235C48.0824 18.9678 48.0433 19.2197 47.9068 19.4325C47.3096 20.3639 47.3096 21.5677 47.9068 22.4991C48.0433 22.712 48.0825 22.9639 48.0169 23.2082Z" fill="#3035C4"/>
<path d="M43.5097 18.3095C43.1283 17.9281 42.51 17.9281 42.1286 18.3095L38.8873 21.5509L37.5969 20.2606C37.2156 19.8792 36.5972 19.8792 36.2158 20.2606C35.8344 20.6419 35.8344 21.2603 36.2158 21.6418L38.1966 23.6227C38.3874 23.8134 38.6373 23.9087 38.8872 23.9087C39.1371 23.9087 39.3871 23.8134 39.5777 23.6227L43.5097 19.6906C43.8911 19.3093 43.8911 18.6909 43.5097 18.3095Z" fill="#E6514A"/>
<path d="M29.5741 28.7114H18.4097C17.8703 28.7114 17.4331 29.1486 17.4331 29.688C17.4331 30.2273 17.8703 30.6646 18.4097 30.6646H29.574C30.1134 30.6646 30.5506 30.2273 30.5506 29.688C30.5506 29.1486 30.1135 28.7114 29.5741 28.7114Z" fill="#3035C4"/>
<path d="M19.6285 11.5234H14.8757C14.3364 11.5234 13.8992 11.9606 13.8992 12.5C13.8992 13.0394 14.3364 13.4766 14.8757 13.4766H19.6285C20.1678 13.4766 20.605 13.0394 20.605 12.5C20.605 11.9606 20.1678 11.5234 19.6285 11.5234Z" fill="#3035C4"/>
<path d="M11.921 11.8096C11.7394 11.6279 11.4874 11.5234 11.2305 11.5234C10.9737 11.5234 10.7217 11.6279 10.5401 11.8096C10.3584 11.9912 10.2539 12.2432 10.2539 12.5C10.2539 12.7568 10.3584 13.0088 10.5401 13.1904C10.7217 13.3721 10.9737 13.4766 11.2305 13.4766C11.4874 13.4766 11.7394 13.3721 11.921 13.1904C12.1027 13.0088 12.2072 12.7568 12.2072 12.5C12.2072 12.2432 12.1027 11.9912 11.921 11.8096Z" fill="#3035C4"/>
<path d="M30.2645 34.5058C29.8831 34.1244 29.2648 34.1244 28.8834 34.5057L26.9533 36.4359L25.7535 35.2361C24.996 34.4787 23.7636 34.4787 23.0061 35.2361L22.2254 36.0168C21.8441 36.3981 21.8441 37.0165 22.2254 37.3979C22.6068 37.7793 23.2251 37.7793 23.6066 37.3979L24.3799 36.6247L25.5796 37.8245C25.9583 38.2032 26.4558 38.3926 26.9533 38.3926C27.4507 38.3926 27.9482 38.2032 28.3269 37.8245L30.2645 35.887C30.6458 35.5056 30.6458 34.8873 30.2645 34.5058Z" fill="#E6514A"/>
</svg>
