<svg width="54" height="54" viewBox="0 0 54 54" fill="none" xmlns="http://www.w3.org/2000/svg">
<path d="M52.6787 17.2788C51.8392 16.6052 50.7546 16.3527 49.7042 16.5858C48.0757 16.9471 46.9384 18.3645 46.9384 20.0326V32.7412C45.702 31.4803 43.7133 31.2664 42.234 32.261L38.5446 34.7417C35.1488 37.0249 32.8159 40.4879 31.9757 44.4928L30.2477 52.7287C30.1281 53.2988 30.4932 53.8578 31.0633 53.9774C31.1363 53.9927 31.2092 54.0001 31.2809 54.0001C31.7694 54.0001 32.2077 53.6588 32.312 53.1618L34.04 44.9258C34.7668 41.4621 36.7844 38.4669 39.7215 36.4921L43.4109 34.0114C44.0685 33.5691 44.9612 33.683 45.4871 34.2764C46.0807 34.9465 46.0886 35.9282 45.5237 36.6064C45.517 36.6137 45.5105 36.6213 45.5038 36.6287C45.5038 36.6287 40.4408 42.0159 40.4217 42.0362C40.0229 42.4608 40.0439 43.1282 40.4684 43.527C40.893 43.9258 41.5604 43.9048 41.9592 43.4802C41.9736 43.465 46.2832 38.8827 46.9836 38.1405C47.0407 38.0801 47.0947 38.0177 47.1472 37.9548C48.3729 36.5934 49.0478 34.8436 49.0478 33.0069V20.0325C49.0478 19.361 49.5057 18.7904 50.1613 18.645C50.5845 18.5511 51.0207 18.6529 51.3588 18.9239C51.6967 19.1951 51.8905 19.5991 51.8905 20.0325V36.3856C51.8905 38.0881 51.3696 39.7217 50.3841 41.11L42.4159 52.3347C42.0787 52.8096 42.1904 53.468 42.6653 53.8052C42.8507 53.9367 43.0638 54 43.2749 54C43.605 54 43.9302 53.8454 44.1359 53.5558L52.1041 42.3311C53.3443 40.584 53.9999 38.5281 53.9999 36.3857V20.0325C53.9996 18.9561 53.5182 17.9525 52.6787 17.2788Z" fill="#3035C4"/>
<path d="M23.752 52.7284L22.024 44.4925C21.1837 40.4877 18.8508 37.0247 15.4551 34.7415L11.7657 32.2606C10.2863 31.2661 8.29781 31.4799 7.0613 32.7408V20.0323C7.0613 18.3642 5.92404 16.9469 4.29561 16.5855C3.24461 16.352 2.16061 16.6049 1.32098 17.2785C0.481448 17.9522 -1.52588e-05 18.9559 -1.52588e-05 20.0323V36.3854C-1.52588e-05 38.5278 0.655576 40.5837 1.89578 42.3307L3.7766 44.9802C3.98226 45.2699 4.30731 45.4245 4.63753 45.4245C4.84868 45.4245 5.06183 45.3612 5.24714 45.2297C5.72206 44.8925 5.83386 44.2341 5.49657 43.7591L3.61576 41.1096C2.63026 39.7214 2.10935 38.0878 2.10935 36.3853V20.0323C2.10935 19.599 2.3032 19.195 2.64112 18.9237C2.97894 18.6526 3.41526 18.5508 3.83861 18.6448C4.4941 18.7902 4.95194 19.3608 4.95194 20.0323V33.0066C4.95194 34.8432 5.62672 36.5931 6.85258 37.9544C6.9051 38.0174 6.9591 38.0797 7.01616 38.1402C7.71658 38.8824 8.54007 39.7569 9.31569 40.5812L10.4015 41.7369C10.405 41.7405 10.4088 41.7437 10.4123 41.7473C11.3412 42.7352 12.0262 43.4647 12.0406 43.4799C12.4391 43.9044 13.1067 43.9255 13.5314 43.5268C13.956 43.128 13.977 42.4606 13.5781 42.036C13.5589 42.0155 12.3243 40.7008 10.9144 39.2022L8.49609 36.6285C8.48998 36.622 8.48439 36.6151 8.47827 36.6086C7.91127 35.9304 7.91834 34.9471 8.51265 34.2761C9.03841 33.6828 9.9311 33.5689 10.5889 34.0111L14.2781 36.4919C17.2152 38.4668 19.2329 41.4619 19.9596 44.9257L21.6877 53.1616C21.792 53.6587 22.2304 53.9999 22.7188 53.9999C22.7905 53.9999 22.8634 53.9925 22.9364 53.9772C23.5065 53.8576 23.8716 53.2984 23.752 52.7284Z" fill="#3035C4"/>
<path d="M11.5839 52.3347L9.99605 50.0981C9.65898 49.6231 9.00054 49.5114 8.52551 49.8486C8.05059 50.1857 7.93879 50.8441 8.27608 51.3191L9.8639 53.5558C10.0696 53.8455 10.3946 54 10.7248 54C10.936 54 11.1491 53.9367 11.3344 53.8052C11.8094 53.468 11.9212 52.8097 11.5839 52.3347Z" fill="#3035C4"/>
<path d="M7.81393 47.0239L7.80718 47.0145C7.46863 46.5403 6.81008 46.4302 6.336 46.7685C5.86191 47.1068 5.7518 47.7655 6.09004 48.2396L6.09679 48.2491C6.30267 48.5375 6.62698 48.6913 6.95626 48.6913C7.16825 48.6913 7.38225 48.6276 7.56798 48.495C8.04196 48.1567 8.15217 47.498 7.81393 47.0239Z" fill="#3035C4"/>
<path d="M27.7454 31.492C27.5483 31.2959 27.2772 31.1841 26.9998 31.1841C26.7213 31.1841 26.4503 31.2959 26.2542 31.492C26.0569 31.6893 25.9451 31.9603 25.9451 32.2388C25.9451 32.5162 26.0569 32.7872 26.2542 32.9844C26.4503 33.1806 26.7214 33.2935 26.9998 33.2935C27.2772 33.2935 27.5483 33.1806 27.7454 32.9844C27.9415 32.7872 28.0545 32.5162 28.0545 32.2388C28.0545 31.9603 27.9417 31.6893 27.7454 31.492Z" fill="#3035C4"/>
<path d="M40.3582 20.2141L38.4818 19.7659V19.4294C39.7013 18.5751 40.501 17.1605 40.501 15.5618V13.1224C40.501 10.5196 38.3835 8.40206 35.7807 8.40206C34.6126 8.40206 33.5431 8.82942 32.7181 9.53479C31.7994 7.28515 29.589 5.69531 27.0131 5.69531C24.434 5.69531 22.2212 7.28926 21.3047 9.54323C20.4784 8.83279 19.405 8.40185 18.2322 8.40185C15.6294 8.40185 13.5119 10.5193 13.5119 13.1222V13.2843V15.5616C13.5119 17.1603 14.3115 18.5749 15.5311 19.4292V19.7657L13.6547 20.2139C11.4143 20.7492 9.84959 22.7317 9.84959 25.0351V27.0048C9.84959 27.5873 10.3219 28.0595 10.9043 28.0595H15.7508C15.7433 28.1874 15.7381 28.316 15.7381 28.4456V32.2381C15.7381 32.8206 16.2104 33.2928 16.7928 33.2928H23.1325C23.7149 33.2928 24.1872 32.8206 24.1872 32.2381C24.1872 31.6556 23.7149 31.1834 23.1325 31.1834H22.0428V29.0039C22.0428 28.4214 21.5705 27.9492 20.9881 27.9492C20.4057 27.9492 19.9334 28.4214 19.9334 29.0039V31.1836H17.8476V28.4458C17.8476 26.4117 19.2292 24.6599 21.2072 24.186L24.1014 23.4924L26.0383 27.8991C26.2067 28.282 26.5855 28.5294 27.0037 28.5294H27.0038C27.4221 28.5294 27.8009 28.2822 27.9693 27.8992L29.9042 23.499L32.7893 24.1883C34.7691 24.6613 36.1519 26.4133 36.1519 28.4489V31.1836H34.0661V29.0039C34.0661 28.4214 33.5938 27.9492 33.0114 27.9492C32.429 27.9492 31.9567 28.4214 31.9567 29.0039V31.1836H30.7614C30.179 31.1836 29.7067 31.6558 29.7067 32.2383C29.7067 32.8208 30.179 33.293 30.7614 33.293H37.2067C37.7891 33.293 38.2614 32.8208 38.2614 32.2383V28.4489C38.2614 28.3182 38.2561 28.1887 38.2485 28.0597H43.1087C43.6911 28.0597 44.1634 27.5875 44.1634 27.005V25.0353C44.1634 22.7319 42.5987 20.7493 40.3582 20.2141ZM35.7807 10.5112C37.1625 10.5112 38.2969 11.5903 38.3859 12.95H36.9196C35.6869 12.95 34.4738 12.6532 33.3834 12.0881C33.7845 11.1612 34.7081 10.5112 35.7807 10.5112ZM33.1697 15.4076C33.1709 15.3562 33.1736 15.3051 33.1736 15.2534V14.3141C34.357 14.8039 35.6297 15.0593 36.9196 15.0593H38.3916V15.5617C38.3916 17.0013 37.2204 18.1727 35.7807 18.1727C34.3409 18.1727 33.1697 17.0013 33.1697 15.5616V15.4076ZM22.962 11.8557C22.962 9.62201 24.7793 7.80468 27.0131 7.80468C29.0278 7.80468 30.7036 9.28314 31.0131 11.212L29.2375 10.1688C28.7934 9.90783 28.2258 10.0058 27.8949 10.4008C27.0272 11.4363 25.7547 12.0302 24.4037 12.0302H22.962V11.8557ZM18.2323 10.5112C19.3048 10.5112 20.2284 11.1613 20.6296 12.088C19.5391 12.6531 18.3261 12.9499 17.0934 12.9499H15.627C15.7161 11.5903 16.8506 10.5112 18.2323 10.5112ZM15.6213 15.0592H17.0934C18.3846 15.0592 19.6587 14.8033 20.8433 14.3124V15.5615C20.8433 17.0011 19.6721 18.1725 18.2323 18.1725C16.7926 18.1725 15.6213 17.0013 15.6213 15.5616V15.0592ZM20.7157 22.1346C18.6407 22.6318 17.0099 24.0785 16.2338 25.9502H11.959V25.0352C11.959 23.712 12.8578 22.573 14.1448 22.2656L16.8309 21.6239C17.3056 21.5105 17.6405 21.0862 17.6405 20.5981V20.2435C17.8346 20.2679 18.0318 20.2819 18.2323 20.2819C18.4313 20.2819 18.6272 20.2681 18.8198 20.2441V20.545C18.819 20.5607 18.8187 20.5764 18.8186 20.5921C18.8184 20.9382 18.9885 21.2771 19.3009 21.4792C19.4186 21.5555 19.5458 21.605 19.6757 21.6298L21.2489 22.0068L20.7157 22.1346ZM23.6576 20.4973C23.3867 20.3778 23.1042 20.2823 22.8131 20.2125L20.929 19.761V19.4324C21.2691 19.1948 21.5765 18.9139 21.8431 18.5973C22.3141 19.3229 22.933 19.9434 23.6576 20.416V20.4973ZM28.2383 22.047L27.0041 24.854L25.7671 22.0398V21.2872C26.1696 21.3702 26.5864 21.4139 27.0131 21.4139C27.4325 21.4139 27.8422 21.3714 28.2383 21.2912V22.047ZM27.0131 19.3045C24.7793 19.3046 22.962 17.4872 22.962 15.2534V14.1394H24.4037C26.0762 14.1394 27.6665 13.5175 28.8852 12.4082L31.0602 13.686V15.4077C30.9788 17.5701 29.1952 19.3045 27.0131 19.3045ZM30.3477 20.5007V20.4293C31.0781 19.957 31.7025 19.3349 32.1772 18.6061C32.4421 18.9192 32.7469 19.197 33.0836 19.4324V19.761L31.1994 20.2125C30.9058 20.283 30.6209 20.3797 30.3477 20.5007ZM42.0539 25.9502H37.7645C36.9876 24.0785 35.3557 22.6326 33.2795 22.1366L32.7499 22.0101L34.3316 21.6311C34.4633 21.6066 34.5926 21.5564 34.7118 21.4792C35.0237 21.2775 35.1933 20.9385 35.1933 20.5924C35.1933 20.5842 35.1932 20.5759 35.193 20.5677V20.2441C35.3857 20.2681 35.5814 20.2819 35.7804 20.2819C35.9809 20.2819 36.1782 20.2679 36.3722 20.2435V20.5981C36.3722 21.0862 36.7072 21.5105 37.1819 21.6239L39.868 22.2656C41.155 22.5731 42.0539 23.712 42.0539 25.0352V25.9502Z" fill="#3035C4"/>
<path d="M23.114 3.4403L22.0076 2.33498C21.5955 1.92323 20.9278 1.92355 20.5161 2.33562C20.1043 2.74769 20.1047 3.41552 20.5168 3.82717L21.6233 4.93248C21.8292 5.13826 22.0989 5.24109 22.3686 5.24109C22.6387 5.24109 22.9087 5.13794 23.1147 4.93185C23.5263 4.51978 23.526 3.85195 23.114 3.4403Z" fill="#E6514A"/>
<path d="M33.4567 2.36178C33.0447 1.95014 32.3767 1.95035 31.9652 2.36252L30.8674 3.46137C30.4557 3.87343 30.4561 4.54124 30.8681 4.95288C31.0741 5.15864 31.3438 5.26147 31.6136 5.26147C31.8837 5.26147 32.1538 5.15833 32.3596 4.95214L33.4575 3.85329C33.8691 3.44123 33.8688 2.77341 33.4567 2.36178Z" fill="#E6514A"/>
<path d="M26.999 0C26.4166 0 25.9444 0.472183 25.9444 1.05469V2.63281C25.9444 3.21532 26.4166 3.6875 26.999 3.6875C27.5814 3.6875 28.0537 3.21532 28.0537 2.63281V1.05469C28.0537 0.472183 27.5815 0 26.999 0Z" fill="#E6514A"/>
</svg>
