<svg width="52" height="52" viewBox="0 0 52 52" fill="none" xmlns="http://www.w3.org/2000/svg">
<path d="M51.2383 0H0.761719C0.340945 0 0 0.341047 0 0.761719V51.2383C0 51.659 0.340945 52 0.761719 52H51.2383C51.6591 52 52 51.659 52 51.2383V0.761719C52 0.341047 51.6591 0 51.2383 0ZM50.4766 50.4766H1.52344V1.52344H50.4766V50.4766Z" fill="#3035C4"/>
<path d="M48.1914 3.04688H3.80859C3.38782 3.04688 3.04688 3.38792 3.04688 3.80859V8.37891C3.04688 8.79958 3.38782 9.14062 3.80859 9.14062C4.22937 9.14062 4.57031 8.79958 4.57031 8.37891V4.57031H47.4297V47.4297H4.57031V11.4258C4.57031 11.0051 4.22937 10.6641 3.80859 10.6641C3.38782 10.6641 3.04688 11.0051 3.04688 11.4258V48.1914C3.04688 48.6121 3.38782 48.9531 3.80859 48.9531H48.1914C48.6122 48.9531 48.9531 48.6121 48.9531 48.1914V3.80859C48.9531 3.38792 48.6122 3.04688 48.1914 3.04688Z" fill="#3035C4"/>
<path d="M26.0002 23.207H24.4278L25.7445 17.0625H31.0276C32.5676 17.0625 33.8206 15.8096 33.8206 14.2695C33.8206 12.7294 32.5676 11.4766 31.0276 11.4766H23.4865C22.1782 11.4766 21.0297 12.4051 20.7555 13.6843L18.2419 25.4148C18.0643 26.2435 18.268 27.0968 18.8008 27.756C19.3337 28.4151 20.1254 28.793 20.9729 28.793H26.0002C27.2323 28.793 28.2346 29.7953 28.2346 31.0273V32.7031C28.2346 33.9352 27.2323 34.9375 26.0002 34.9375C24.7682 34.9375 23.7658 33.9352 23.7658 32.7031C23.7658 31.163 22.5129 29.9102 20.9729 29.9102C19.4329 29.9102 18.1799 31.163 18.1799 32.7031C18.1799 37.0153 21.6881 40.5234 26.0002 40.5234C30.3124 40.5234 33.8206 37.0153 33.8206 32.7031V31.0273C33.8206 26.7152 30.3124 23.207 26.0002 23.207ZM32.2971 32.7031C32.2971 36.1752 29.4723 39 26.0002 39C22.5281 39 19.7033 36.1752 19.7033 32.7031C19.7033 32.0031 20.2728 31.4336 20.9729 31.4336C21.6729 31.4336 22.2424 32.0031 22.2424 32.7031C22.2424 34.7752 23.9281 36.4609 26.0002 36.4609C28.0723 36.4609 29.758 34.7752 29.758 32.7031V31.0273C29.758 28.9553 28.0723 27.2695 26.0002 27.2695H20.9729C20.5876 27.2695 20.2278 27.0977 19.9856 26.7982C19.7433 26.4986 19.6508 26.1107 19.7316 25.734L22.2452 14.0035C22.3699 13.422 22.8918 13 23.4865 13H31.0276C31.7277 13 32.2971 13.5695 32.2971 14.2695C32.2971 14.9696 31.7277 15.5391 31.0276 15.5391H25.1286C24.7695 15.5391 24.459 15.79 24.3837 16.1412L22.7407 23.8092C22.6924 24.0341 22.7485 24.2688 22.8932 24.4477C23.0378 24.6266 23.2555 24.7306 23.4855 24.7306H26.0002C29.4723 24.7306 32.2971 27.5553 32.2971 31.0274V32.7031Z" fill="#E6514A"/>
</svg>
