<svg width="52" height="52" viewBox="0 0 52 52" fill="none" xmlns="http://www.w3.org/2000/svg">
<path d="M51.2383 0H0.761719C0.340945 0 0 0.341047 0 0.761719V51.2383C0 51.659 0.340945 52 0.761719 52H51.2383C51.6591 52 52 51.659 52 51.2383V0.761719C52 0.341047 51.6591 0 51.2383 0ZM50.4766 50.4766H1.52344V1.52344H50.4766V50.4766Z" fill="#3035C4"/>
<path d="M48.1913 3.04688H3.80859C3.38782 3.04688 3.04688 3.38792 3.04688 3.80859V8.37891C3.04688 8.79958 3.38782 9.14062 3.80859 9.14062C4.22937 9.14062 4.57031 8.79958 4.57031 8.37891V4.57031H47.4296V47.4297H4.57031V11.4258C4.57031 11.0051 4.22937 10.6641 3.80859 10.6641C3.38782 10.6641 3.04688 11.0051 3.04688 11.4258V48.1914C3.04688 48.6121 3.38782 48.9531 3.80859 48.9531H48.1913C48.6121 48.9531 48.9531 48.6121 48.9531 48.1914V3.80859C48.9531 3.38792 48.6121 3.04688 48.1913 3.04688Z" fill="#3035C4"/>
<path d="M27.4881 22.5149C27.1407 22.4364 26.7856 22.6091 26.6325 22.9304L23.5019 29.5045C23.3896 29.7405 23.406 30.0177 23.5456 30.2387C23.6851 30.4597 23.9283 30.5938 24.1897 30.5938H27.3202C27.741 30.5938 28.082 30.2527 28.082 29.832V23.2579C28.082 22.9019 27.8354 22.5934 27.4881 22.5149ZM26.5585 29.0703H25.396L26.5585 26.6291V29.0703Z" fill="#E6514A"/>
<path d="M32.1445 29.304V14.2697C32.1444 12.9554 31.2491 11.8351 29.9671 11.5454C29.7649 11.4997 29.5576 11.4766 29.351 11.4766C28.2802 11.4766 27.2907 12.1016 26.8299 13.069L18.451 30.6646C18.0365 31.535 18.0964 32.5414 18.6111 33.3564C19.1257 34.1715 20.0087 34.6582 20.9727 34.6582H26.5586V37.7305C26.5586 39.2706 27.8116 40.5234 29.3516 40.5234C30.8916 40.5234 32.1445 39.2706 32.1445 37.7305V34.4266C33.1448 33.9922 33.8203 32.9988 33.8203 31.8653C33.8203 30.7317 33.1448 29.7383 32.1445 29.304ZM31.2503 33.1155C30.8863 33.1797 30.621 33.496 30.621 33.8656V37.7306C30.621 38.4307 30.0515 39.0001 29.3515 39.0001C28.6514 39.0001 28.0819 38.4307 28.0819 37.7306V33.8966C28.0819 33.4759 27.741 33.1349 27.3202 33.1349H20.9726C20.5344 33.1349 20.1331 32.9137 19.8992 32.5432C19.6652 32.1727 19.6381 31.7152 19.8263 31.3196L28.2052 13.7239C28.4148 13.2841 28.8644 13 29.3509 13C29.4447 13 29.5391 13.0106 29.6313 13.0314C30.2139 13.163 30.621 13.6723 30.621 14.2697V29.8651C30.621 30.2347 30.8863 30.551 31.2503 30.6152C31.8567 30.7223 32.2968 31.248 32.2968 31.8654C32.2968 32.4828 31.8567 33.0084 31.2503 33.1155Z" fill="#E6514A"/>
</svg>
