<svg width="75" height="89" viewBox="0 0 75 89" fill="none" xmlns="http://www.w3.org/2000/svg">
<path d="M59.8149 62.3958L48.8206 57.6847C48.8154 57.6826 48.8106 57.6802 48.8053 57.6782L44.0201 55.6277C44.0217 55.5534 44.0267 55.4795 44.0267 55.4051V49.0875C47.2577 46.24 49.2998 42.0735 49.2998 37.4385V36.3791H50.8046C52.7031 36.3791 54.2477 34.8344 54.2477 32.9359V28.6767C54.2477 27.1786 53.2844 25.9043 51.9458 25.432V17.2499C51.9458 12.4505 48.3333 8.0862 44.6018 5.54572C42.8502 4.38264 41.3875 2.79572 40.3721 0.956141C40.1894 0.625109 39.8705 0.391016 39.5 0.315906C38.467 0.106391 37.4074 0 36.3507 0C29.5604 0 23.7652 4.33847 21.5899 10.3885L20.5623 10.7685C17.5967 11.865 15.6042 14.7262 15.6042 17.8881V25.432C14.2656 25.9043 13.3023 27.1786 13.3023 28.6767V32.9359C13.3023 34.8344 14.8469 36.3791 16.7454 36.3791H18.2447V37.4385C18.2447 42.0765 20.2895 46.2455 23.5242 49.0932V55.4053C23.5242 55.4991 23.5302 55.5923 23.5328 55.686L7.94475 62.4632C3.1185 64.4954 0 69.1912 0 74.4263V86.7109C0 87.4228 0.577156 88 1.28906 88C2.00097 88 2.57813 87.4228 2.57813 86.7109V74.4262C2.57813 70.231 5.07736 66.4678 8.95899 64.8333L18.4568 60.704C19.0211 62.1815 19.7949 63.5664 20.7699 64.8342C21.0238 65.1643 21.406 65.3374 21.7926 65.3374C22.0669 65.3374 22.3432 65.2503 22.5775 65.07C23.1418 64.636 23.2475 63.8266 22.8135 63.2624C21.968 62.1631 21.3037 60.9593 20.8254 59.6741L23.9461 58.3174C25.2103 62.5993 29.1753 65.6571 33.7747 65.6571C38.4062 65.6571 42.3798 62.574 43.6214 58.2617L46.754 59.604C44.7798 64.9913 39.5943 68.6653 33.7747 68.6653C31.233 68.6653 28.7489 67.9697 26.5908 66.6536C25.983 66.2829 25.1898 66.4752 24.8191 67.0832C24.4484 67.6909 24.6407 68.4841 25.2486 68.8548C27.8109 70.4175 30.7593 71.2434 33.7747 71.2434C40.6323 71.2434 46.7473 66.942 49.1253 60.6201L58.7847 64.7591C62.544 66.4254 64.9729 70.1585 64.9729 74.2698V86.7109C64.9729 87.4228 65.5501 88 66.262 88C66.9739 88 67.551 87.4228 67.551 86.7109V74.2698C67.551 69.1398 64.5202 64.4815 59.8149 62.3958ZM51.6698 32.9359C51.6698 33.4128 51.2817 33.8009 50.8047 33.8009H49.3027V27.8118H50.8047C51.2817 27.8118 51.6698 28.1999 51.6698 28.6768V32.9359ZM16.7456 33.8009C16.2687 33.8009 15.8806 33.4128 15.8806 32.9359V28.6767C15.8806 28.1997 16.2687 27.8116 16.7456 27.8116H18.2449V33.8008H16.7456V33.8009ZM20.823 37.4385V35.1448C20.8239 35.1264 20.8258 35.1084 20.8258 35.09V26.5227C20.8258 26.5152 20.8247 26.5079 20.8246 26.5004C20.8517 25.7235 21.0559 24.2969 22.0829 23.0773C23.1163 21.8498 24.4334 21.4694 24.8662 21.3443C26.5769 20.8503 27.6605 21.3467 29.1608 22.0335C30.6385 22.7102 32.313 23.4774 34.7911 23.3545C37.0282 23.244 38.5172 22.4618 39.7136 21.8333C40.9609 21.1779 41.7139 20.7821 42.9708 21.1573C43.6532 21.3611 44.3711 20.973 44.5748 20.2907C44.7784 19.6085 44.3905 18.8904 43.7082 18.6868C41.4448 18.0113 39.8881 18.8293 38.5146 19.5508C37.442 20.1142 36.3328 20.697 34.6639 20.7793C32.8149 20.8706 31.5612 20.2967 30.2342 19.6891C28.6153 18.9478 26.7802 18.1077 24.1509 18.8671C22.4904 19.3468 21.1312 20.2044 20.1108 21.4165C19.0283 22.7023 18.5637 24.1189 18.371 25.2335H18.1825V17.8881C18.1825 16.0335 19.222 14.3375 20.8264 13.4738C20.7245 14.1943 20.6707 14.9301 20.6707 15.6784C20.6707 16.3903 21.2479 16.9675 21.9598 16.9675C22.6717 16.9675 23.2489 16.3903 23.2489 15.6784C23.2489 8.45487 29.1265 2.57812 36.3509 2.57812C37.0456 2.57812 37.7417 2.63295 38.4275 2.74158C39.622 4.7135 41.2526 6.41644 43.163 7.6847C46.5206 9.97545 48.8787 13.1981 49.3682 17.3243V25.2337H49.2429C49.1375 24.3817 48.8799 23.3958 48.3277 22.4024C47.9817 21.78 47.1967 21.5559 46.5747 21.902C45.9525 22.2478 45.7284 23.0328 46.0744 23.655C46.6615 24.7112 46.7512 25.7694 46.723 26.4712C46.7223 26.4883 46.722 26.5055 46.722 26.5227V37.4385C46.722 44.5787 40.913 50.3877 33.7726 50.3877C26.632 50.3877 20.823 44.5787 20.823 37.4385ZM33.7747 63.079C29.9025 63.079 26.6288 60.1858 26.1596 56.347C26.1216 56.0402 26.1023 55.7234 26.1023 55.4051V50.9352C28.3663 52.2268 30.9844 52.9657 33.7723 52.9657C36.5626 52.9657 39.1832 52.2254 41.4485 50.9315V55.4051C41.4485 55.7076 41.4308 56.0089 41.3951 56.3052C40.947 60.1671 37.6707 63.079 33.7747 63.079Z" fill="#3035C4"/>
<path d="M14.2406 77.1094C13.5287 77.1094 12.9515 77.6865 12.9515 78.3984V86.7109C12.9515 87.4228 13.5287 88 14.2406 88C14.9525 88 15.5297 87.4228 15.5297 86.7109V78.3984C15.5297 77.6865 14.9525 77.1094 14.2406 77.1094Z" fill="#3035C4"/>
<path d="M53.3478 77.1094C52.6359 77.1094 52.0587 77.6865 52.0587 78.3984V86.7109C52.0587 87.4228 52.6359 88 53.3478 88C54.0597 88 54.6368 87.4228 54.6368 86.7109V78.3984C54.6368 77.6865 54.0597 77.1094 53.3478 77.1094Z" fill="#3035C4"/>
<path d="M72.6226 65H50.3776C49.0667 65 48.0001 66.0636 48.0001 67.3708V86.6293C48.0001 87.9364 49.0667 89 50.3776 89H72.6226C73.9336 89 75.0001 87.9364 75.0001 86.6293V67.3708C75.0001 66.0636 73.9336 65 72.6226 65Z" fill="white"/>
<path d="M71.4 66.3633H51.7381C50.5794 66.3633 49.6367 67.306 49.6367 68.4647V85.5349C49.6367 86.6935 50.5794 87.6362 51.7381 87.6362H71.4C72.5586 87.6362 73.5013 86.6935 73.5013 85.5349V68.4647C73.5013 67.306 72.5586 66.3633 71.4 66.3633ZM72.103 85.5349C72.103 85.9225 71.7876 86.2379 71.4 86.2379H51.7381C51.3505 86.2379 51.035 85.9225 51.035 85.5349V68.4647C51.035 68.077 51.3505 67.7616 51.7381 67.7616H71.4C71.7876 67.7616 72.103 68.077 72.103 68.4647V85.5349Z" fill="#E6514A"/>
<path d="M60.4478 74.1657C61.0887 74.1657 61.6932 74.3744 62.196 74.7691C62.4623 74.9782 62.84 74.9664 63.0927 74.7413C63.3455 74.5162 63.4007 74.1423 63.2238 73.8537C62.6946 72.9906 61.9508 72.2688 61.0727 71.7661C60.1664 71.2474 59.1326 70.9731 58.083 70.9731C54.76 70.9731 52.0566 73.6766 52.0566 76.9995C52.0566 80.3225 54.76 83.0259 58.083 83.0259C59.1327 83.0259 60.1664 82.7517 61.0727 82.2329C61.9508 81.7303 62.6947 81.0084 63.2238 80.1453C63.4007 79.8568 63.3455 79.4829 63.0927 79.2577C62.84 79.0327 62.4622 79.0209 62.196 79.23C61.6932 79.6247 61.0887 79.8333 60.4478 79.8333C58.8852 79.8333 57.614 78.5621 57.614 76.9995C57.6139 75.437 58.8852 74.1657 60.4478 74.1657ZM60.0147 81.2097C59.4204 81.4816 58.7646 81.6276 58.083 81.6276C55.5311 81.6276 53.455 79.5515 53.455 76.9996C53.455 74.4476 55.5311 72.3715 58.083 72.3715C58.7647 72.3715 59.4205 72.5175 60.0148 72.7894C57.8837 73.0069 56.2156 74.8121 56.2156 76.9996C56.2156 79.187 57.8836 80.9922 60.0147 81.2097Z" fill="#E6514A"/>
<path d="M65.5322 76.3003H65.5248V76.2929C65.5248 75.9068 65.2117 75.5938 64.8256 75.5938C64.4395 75.5938 64.1265 75.9068 64.1265 76.2929V76.3003H64.1191C63.733 76.3003 63.4199 76.6134 63.4199 76.9995C63.4199 77.3857 63.733 77.6987 64.1191 77.6987H64.1265V77.7061C64.1265 78.0922 64.4395 78.4053 64.8256 78.4053C65.2117 78.4053 65.5248 78.0922 65.5248 77.7061V77.6987H65.5322C65.9183 77.6987 66.2313 77.3857 66.2313 76.9995C66.2313 76.6134 65.9183 76.3003 65.5322 76.3003Z" fill="#E6514A"/>
</svg>
