<svg width="84" height="84" viewBox="0 0 84 84" fill="none" xmlns="http://www.w3.org/2000/svg">
<path d="M14.8202 47.0425C15.4998 47.0425 16.0507 46.4916 16.0507 45.812V40.1773C16.0507 37.6713 14.0117 35.6323 11.5055 35.6323C8.99943 35.6323 6.96045 37.6713 6.96045 40.1773V45.812C6.96045 46.4916 7.51137 47.0425 8.19093 47.0425H14.8202ZM9.42157 40.1773C9.42157 39.0282 10.3566 38.0932 11.5057 38.0932C12.6549 38.0932 13.5899 39.0282 13.5899 40.1773V44.5816H9.42157V40.1773Z" fill="#3035C4"/>
<path d="M6.96045 64.5395C6.96045 65.2191 7.51137 65.77 8.19093 65.77H14.8202C15.4998 65.77 16.0507 65.2191 16.0507 64.5395V58.9045C16.0507 56.3984 14.0117 54.3594 11.5055 54.3594C8.99943 54.3594 6.96045 56.3984 6.96045 58.9045V64.5395ZM9.4214 58.9047C9.4214 57.7555 10.3564 56.8205 11.5055 56.8205C12.6548 56.8205 13.5898 57.7555 13.5898 58.9047V63.3092H9.4214V58.9047Z" fill="#3035C4"/>
<path d="M24.7642 35.2754H31.3934C32.0729 35.2754 32.6238 34.7245 32.6238 34.0449V28.4102C32.6238 25.9042 30.5849 23.8652 28.0788 23.8652C25.5726 23.8652 23.5337 25.9042 23.5337 28.4102V34.0449C23.5337 34.7245 24.0846 35.2754 24.7642 35.2754ZM25.9946 28.4103C25.9946 27.2613 26.9296 26.3263 28.0788 26.3263C29.2279 26.3263 30.1629 27.2613 30.1629 28.4103V32.8147H25.9946V28.4103Z" fill="#E6514A"/>
<path d="M77.0394 40.1773C77.0394 37.6713 75.0005 35.6323 72.4944 35.6323C69.9882 35.6323 67.9492 37.6713 67.9492 40.1773V45.812C67.9492 46.4916 68.5001 47.0425 69.1797 47.0425H75.809C76.4885 47.0425 77.0394 46.4916 77.0394 45.812V40.1773ZM74.5785 44.5816H70.4102V40.1773C70.4102 39.0282 71.3451 38.0932 72.4944 38.0932C73.6435 38.0932 74.5785 39.0282 74.5785 40.1773V44.5816Z" fill="#3035C4"/>
<path d="M52.6067 35.2754H59.2359C59.9155 35.2754 60.4664 34.7245 60.4664 34.0449V28.4102C60.4664 25.9042 58.4274 23.8652 55.9212 23.8652C53.4152 23.8652 51.3762 25.9042 51.3762 28.4102V34.0449C51.3762 34.7245 51.9271 35.2754 52.6067 35.2754ZM53.8371 28.4103C53.8371 27.2613 54.7721 26.3263 55.9212 26.3263C57.0705 26.3263 58.0054 27.2613 58.0054 28.4103V32.8147H53.8371V28.4103Z" fill="#3035C4"/>
<path d="M38.6855 35.2754H45.3146C45.9941 35.2754 46.545 34.7245 46.545 34.0449V28.4102C46.545 25.9042 44.5061 23.8652 42.0001 23.8652C39.494 23.8652 37.4551 25.9042 37.4551 28.4102V34.0449C37.4551 34.7245 38.006 35.2754 38.6855 35.2754ZM39.916 28.4103C39.916 27.2613 40.851 26.3263 42.0001 26.3263C43.1491 26.3263 44.0841 27.2613 44.0841 28.4103V32.8147H39.916V28.4103Z" fill="#3035C4"/>
<path d="M24.7642 52.1797H31.3934C32.0729 52.1797 32.6238 51.6288 32.6238 50.9492V45.3145C32.6238 42.8085 30.5849 40.7695 28.0788 40.7695C25.5726 40.7695 23.5337 42.8085 23.5337 45.3145V50.9492C23.5337 51.6288 24.0846 52.1797 24.7642 52.1797ZM25.9946 45.3145C25.9946 44.1654 26.9296 43.2304 28.0788 43.2304C29.2279 43.2304 30.1629 44.1654 30.1629 45.3145V49.7188H25.9946V45.3145Z" fill="#3035C4"/>
<path d="M52.6067 52.1797H59.2359C59.9155 52.1797 60.4664 51.6288 60.4664 50.9492V45.3145C60.4664 42.8085 58.4274 40.7695 55.9212 40.7695C53.4152 40.7695 51.3762 42.8085 51.3762 45.3145V50.9492C51.3762 51.6288 51.9271 52.1797 52.6067 52.1797ZM53.8371 45.3145C53.8371 44.1654 54.7721 43.2304 55.9212 43.2304C57.0705 43.2304 58.0054 44.1654 58.0054 45.3145V49.7188H53.8371V45.3145Z" fill="#3035C4"/>
<path d="M38.6855 52.1797H45.3146C45.9941 52.1797 46.545 51.6288 46.545 50.9492V45.3145C46.545 42.8085 44.5061 40.7695 42.0001 40.7695C39.494 40.7695 37.4551 42.8085 37.4551 45.3145V50.9492C37.4551 51.6288 38.006 52.1797 38.6855 52.1797ZM39.916 45.3145C39.916 44.1654 40.851 43.2304 42.0001 43.2304C43.1491 43.2304 44.0841 44.1654 44.0841 45.3145V49.7188H39.916V45.3145Z" fill="#E6514A"/>
<path d="M72.4944 54.3594C69.9882 54.3594 67.9492 56.3984 67.9492 58.9045V64.5395C67.9492 65.2191 68.5001 65.77 69.1797 65.77H75.809C76.4885 65.77 77.0394 65.2191 77.0394 64.5395V58.9045C77.0394 56.3984 75.0006 54.3594 72.4944 54.3594ZM74.5785 63.309H70.4102V58.9045C70.4102 57.7554 71.3451 56.8204 72.4944 56.8204C73.6435 56.8204 74.5785 57.7554 74.5785 58.9045V63.309Z" fill="#3035C4"/>
<path d="M82.7695 23.5336H64.7753V19.3654H66.1966C66.8761 19.3654 67.4271 18.8145 67.4271 18.135V13.1631C67.4271 12.4835 66.8761 11.9326 66.1966 11.9326H57.7295C57.0499 11.9326 56.499 12.4835 56.499 13.1631C56.499 13.8426 57.0499 14.3935 57.7295 14.3935H64.9661V16.9045H19.0339V14.3935H52.0078C52.6874 14.3935 53.2383 13.8426 53.2383 13.1631C53.2383 12.4835 52.6874 11.9326 52.0078 11.9326H43.2305V8.42723H52.9382C53.3741 8.42723 53.7776 8.19656 53.9987 7.82069C54.2199 7.44499 54.2256 6.9802 54.0138 6.59909L52.6885 4.21362L54.0138 1.82798C54.2256 1.44687 54.2197 0.982242 53.9987 0.606375C53.7776 0.230672 53.3741 0 52.9382 0H42C41.3205 0 40.7695 0.550922 40.7695 1.23047V11.9326H17.8034C17.1239 11.9326 16.5729 12.4835 16.5729 13.1631V18.135C16.5729 18.8145 17.1239 19.3654 17.8034 19.3654H19.2247V23.5336H1.23047C0.550922 23.5336 0 24.0845 0 24.7641V29.736V40.7256C0 41.4051 0.550922 41.956 1.23047 41.956C1.91002 41.956 2.46094 41.4051 2.46094 40.7256V30.9665H19.2247V71.2638H2.46094V46.4561C2.46094 45.7766 1.91002 45.2256 1.23047 45.2256C0.550922 45.2256 0 45.7766 0 46.4561V82.7695C0 83.4491 0.550922 84 1.23047 84H15.4832H68.5168H82.7695C83.4491 84 84 83.4491 84 82.7695V46.4561C84 45.7766 83.4491 45.2256 82.7695 45.2256C82.09 45.2256 81.5391 45.7766 81.5391 46.4561V71.2638H64.7753V30.9665H81.5391V40.7256C81.5391 41.4051 82.09 41.956 82.7695 41.956C83.4491 41.956 84 41.4051 84 40.7256V29.736V24.7641C84 24.0845 83.4491 23.5336 82.7695 23.5336ZM43.2305 2.46094H50.8471L50.2053 3.6161C49.9989 3.9877 49.9989 4.43953 50.2053 4.8113L50.8469 5.9663H43.2305V2.46094ZM64.9661 76.5671H19.0339V73.7248H64.9661V76.5671ZM47.3988 58.4776V71.5952H43.2305V58.4776H47.3988ZM40.7695 71.5952H36.6012V58.4776H40.7695V71.5952ZM62.3144 19.3654V71.5952H49.8596V57.2471C49.8596 56.5676 49.3087 56.0167 48.6291 56.0167H35.3707C34.6912 56.0167 34.1403 56.5676 34.1403 57.2471V71.5952H21.6855V19.3654H62.3144ZM2.46094 28.5055V25.9946H19.2247V28.5055H2.46094ZM2.46094 73.7248H16.5729V76.5671H15.4832C14.8037 76.5671 14.2528 77.1181 14.2528 77.7976V81.5391H2.46094V73.7248ZM16.7137 79.0281H67.2863V81.5391H16.7137V79.0281ZM81.5391 81.5391H69.7472V77.7976C69.7472 77.1181 69.1963 76.5671 68.5168 76.5671H67.4271V73.7248H81.5391V81.5391ZM64.7753 25.9946H81.5391V28.5055H64.7753V25.9946Z" fill="#3035C4"/>
</svg>
