<svg width="96" height="96" viewBox="0 0 96 96" fill="none" xmlns="http://www.w3.org/2000/svg">
<path d="M39.6458 88.7674C38.8689 88.7674 38.2395 89.3976 38.2395 90.1749V94.5919C38.2395 95.3692 38.8689 95.9993 39.6458 95.9993C40.4226 95.9993 41.052 95.3692 41.052 94.5919V90.1749C41.052 89.3976 40.4226 88.7674 39.6458 88.7674ZM9.72564 88.7674C8.94883 88.7674 8.31939 89.3976 8.31939 90.1749V94.5919C8.31939 95.3692 8.94883 95.9993 9.72564 95.9993C10.5025 95.9993 11.1319 95.3692 11.1319 94.5919V90.1749C11.1319 89.3976 10.5025 88.7674 9.72564 88.7674ZM86.2395 88.7674C85.4627 88.7674 84.8333 89.3976 84.8333 90.1749V94.5919C84.8333 95.3692 85.4627 95.9993 86.2395 95.9993C87.0163 95.9993 87.6458 95.3692 87.6458 94.5919V90.1749C87.6458 89.3976 87.0163 88.7674 86.2395 88.7674ZM38.9728 71.9323L32.0739 69.9919C32.0261 69.975 31.9776 69.9599 31.9283 69.9483C31.1646 69.7072 30.6354 68.9918 30.6354 68.1862V67.9039C31.8489 67.5095 32.9616 66.8335 33.8901 65.9053L35.0689 64.7266C36.8912 62.905 37.92 60.5029 37.9892 57.9374H39.5807C41.6173 57.9374 43.2743 56.28 43.2743 54.2429V50.6742C43.2743 48.6371 41.6173 46.9797 39.5807 46.9797H37.9959V38.6546C37.9849 33.8458 34.0614 29.7401 29.0739 29.7324H20.3321C15.4125 29.7324 11.4101 33.7349 11.4101 38.6546V46.9797H9.82539C7.78876 46.9797 6.13183 48.6371 6.13183 50.6742V54.2429C6.13183 56.28 7.78876 57.9374 9.82539 57.9374H11.4169C11.4861 60.5029 12.5149 62.905 14.337 64.7264L15.516 65.9055C16.4445 66.8339 17.5571 67.5098 18.7706 67.9041V68.1824C18.7706 69.0072 18.216 69.7396 17.4223 69.9633L10.4312 71.9325C4.38358 73.1615 1.52588e-05 78.4976 1.52588e-05 84.6422V94.592C1.52588e-05 95.3693 0.629453 95.9995 1.40627 95.9995C2.18308 95.9995 2.81251 95.3693 2.81251 94.592V84.6422C2.79283 79.8895 6.33676 75.5459 11.1415 74.6567L17.607 72.8357C19.0796 73.6603 21.5736 74.7117 24.7174 74.7117C27.4412 74.7117 30.2711 73.7327 31.7983 72.8383L38.2631 74.6567C42.96 75.5324 46.6226 79.7859 46.5938 84.6441V94.592C46.5938 95.3693 47.2232 95.9995 48 95.9995C48.7768 95.9995 49.4063 95.3693 49.4063 94.592V84.6441C49.4063 78.4986 45.0218 73.1617 38.9728 71.9323ZM37.9961 49.7948H39.5809C40.0667 49.7948 40.4619 50.1894 40.4619 50.6743V54.2431C40.4619 54.728 40.0667 55.1227 39.5809 55.1227H37.9961V49.7948ZM11.4101 55.1225H9.82539C9.33958 55.1225 8.94433 54.7278 8.94433 54.2429V50.6742C8.94433 50.1892 9.33958 49.7946 9.82539 49.7946H11.4101V55.1225ZM34.8621 36.7042C35.0693 37.3171 35.1834 37.9728 35.1834 38.6548V46.9029C34.4835 46.7879 33.6557 46.5336 32.8316 46.0072C31.9389 45.4369 31.3384 44.7272 30.9484 44.1257C32.8886 42.0391 34.2244 39.4931 34.8621 36.7042ZM14.2226 38.6548C14.2226 35.2872 16.9633 32.5475 20.3321 32.5475H29.0739C30.3278 32.5475 31.4944 32.9275 32.4653 33.5778C32.3779 35.3174 31.95 37.657 30.57 39.9703C28.6174 43.2429 26.2554 45.3999 21.6429 46.8016C18.7511 47.6804 16.1451 47.5805 14.2228 47.2443L14.2226 38.6548ZM17.5039 63.9141L16.3247 62.735C14.9693 61.3801 14.2228 59.5783 14.2228 57.6619V50.0965C16.4259 50.4234 19.2985 50.4559 22.4603 49.4949C25.2062 48.6605 27.3379 47.3204 28.8696 46.0736C29.4428 46.8633 30.2344 47.6875 31.3189 48.3804C32.6989 49.2618 34.0851 49.6172 35.1836 49.743V57.6619C35.1836 59.5783 34.4372 61.3801 33.0816 62.7352L31.9028 63.9139C30.8848 64.9314 29.5316 65.4917 28.0926 65.4917H21.3141C19.8745 65.4917 18.5213 64.9314 17.5039 63.9141ZM25.1709 71.8876C23.3409 71.9612 21.7637 71.5802 20.5408 71.1098C21.1706 70.3295 21.5492 69.351 21.5777 68.3067H27.8284C27.8559 69.3549 28.2362 70.3366 28.8688 71.1184C27.84 71.5159 26.5961 71.8304 25.1709 71.8876ZM56.3194 88.7674C55.5426 88.7674 54.9131 89.3976 54.9131 90.1749V94.5919C54.9131 95.3692 55.5426 95.9993 56.3194 95.9993C57.0962 95.9993 57.7256 95.3692 57.7256 94.5919V90.1749C57.7256 89.3976 57.0962 88.7674 56.3194 88.7674ZM86.3597 72.1226C88.4244 70.3925 89.6788 67.8086 89.6788 64.9727V48.1302C89.6788 43.214 87.7656 38.5927 84.2914 35.1176C80.8196 31.6447 76.2056 29.7326 71.2973 29.7326H71.2869C61.1565 29.738 52.9149 37.9912 52.9149 48.1304V64.9826C52.9149 67.7756 54.1905 70.376 56.2453 72.1177C53.9771 72.7231 51.9289 73.9155 50.2828 75.6011C49.7398 76.1569 49.7499 77.0481 50.3055 77.5914C50.8607 78.1343 51.7509 78.1249 52.2939 77.5687C54.8036 74.6787 60.7911 74.0063 64.2007 72.8357C65.6734 73.6603 68.1673 74.7117 71.3111 74.7117C74.0329 74.7117 76.866 73.7323 78.3921 72.8383C86.6572 75.0159 92.7034 76.089 93.1875 84.6439V94.5919C93.1875 95.3692 93.8169 95.9993 94.5938 95.9993C95.3706 95.9993 96 95.3692 96 94.5919V84.6439C96 78.771 91.9942 73.6392 86.3597 72.1226ZM86.8663 55.4152C86.8663 55.9003 86.4754 56.295 85.9948 56.295H84.4223V50.9662H85.9948C86.4754 50.9662 86.8663 51.361 86.8663 51.8461V55.4152ZM55.7274 48.1304C55.7274 39.5426 62.7081 32.5522 71.2884 32.5475H71.2973C75.4541 32.5475 79.3628 34.1672 82.3031 37.1087C85.2458 40.0523 86.8663 43.9664 86.8663 48.1304V48.2601C86.5864 48.1916 86.2956 48.1512 85.9948 48.1512H84.4043C84.3574 47.8453 84.2121 47.5608 83.985 47.3447C83.706 47.0789 83.3316 46.9393 82.9453 46.9588C82.2103 46.996 80.7636 46.9194 79.3277 45.9916C77.9856 45.1244 77.3106 43.9294 77.0278 43.2944C76.8394 42.8714 76.455 42.5681 76.0003 42.4835C75.5454 42.399 75.0778 42.5439 74.7503 42.8708C73.4844 44.1345 71.3325 45.8389 68.2697 46.7805C64.8557 47.8301 61.8435 47.4785 59.9173 46.9986C59.4975 46.8941 59.0526 46.9887 58.7117 47.2555C58.4274 47.4779 58.2435 47.7994 58.1897 48.151H56.5989C56.2982 48.151 56.0074 48.1914 55.7274 48.2599V48.1304ZM81.6098 49.7184V57.6156C81.6098 59.529 80.8738 61.3273 79.5375 62.6789L78.375 63.8548C77.3762 64.8651 76.0491 65.4215 74.6383 65.4215H67.9553C66.5447 65.4215 65.2174 64.8651 64.2186 63.8548L63.0561 62.6789C61.7198 61.3273 60.9838 59.5292 60.9838 57.6156V50.0764C63.1562 50.3996 65.9839 50.4283 69.0954 49.4716C71.7926 48.6423 73.8889 47.3137 75.399 46.0742C75.9636 46.8562 76.7406 47.6706 77.802 48.3565C79.1604 49.2344 80.5253 49.5908 81.6098 49.7184ZM55.7274 51.8461C55.7274 51.361 56.1184 50.9662 56.5989 50.9662H58.1715V56.295H56.5989C56.1184 56.295 55.7274 55.9003 55.7274 55.4152V51.8461ZM65.3644 68.1824C65.3644 69.0072 64.8098 69.7396 64.0161 69.9633L59.9903 71.0972C57.4624 70.1647 55.7274 67.705 55.7274 64.9824V59.0011C56.0074 59.0696 56.2982 59.1099 56.5989 59.1099H58.2814C58.5911 61.2027 59.5494 63.1339 61.0569 64.6587L62.2194 65.8346C63.1183 66.7438 64.1925 67.4111 65.3642 67.809L65.3644 68.1824ZM71.7647 71.8876C69.9347 71.9612 68.3574 71.5802 67.1346 71.1098C67.7784 70.312 68.1619 69.3073 68.1744 68.2365H74.4189C74.4308 69.3112 74.8157 70.3191 75.4624 71.1182C74.4337 71.5159 73.1899 71.8304 71.7647 71.8876ZM82.5877 71.0946C82.4636 71.0574 78.7198 70.0108 78.5216 69.9483C77.7581 69.707 77.2294 68.9916 77.2294 68.1862V67.8092C78.4013 67.4113 79.4753 66.7442 80.3741 65.8348C82.2787 63.9082 83.9636 61.8943 84.3122 59.1101H85.9946C86.2954 59.1101 86.5862 59.0698 86.8661 59.0013V64.9728C86.8663 67.738 85.1593 70.1602 82.5877 71.0946Z" fill="#3035C4"/>
<path d="M12.3476 9.47693H22.1522C22.929 9.47693 23.5584 8.84676 23.5584 8.06946C23.5584 7.29217 22.929 6.662 22.1522 6.662H12.3476C11.5708 6.662 10.9414 7.29217 10.9414 8.06946C10.9414 8.84676 11.571 9.47693 12.3476 9.47693ZM7.03126 21.5811C7.80808 21.5811 8.43751 20.951 8.43751 20.1737C8.43751 19.3964 7.80808 18.7662 7.03126 18.7662C4.70514 18.7662 2.81251 16.8721 2.81251 14.5438V7.03732C2.81251 4.709 4.70514 2.81493 7.03126 2.81493H28.5938C30.9199 2.81493 32.8125 4.709 32.8125 7.03732V14.5438C32.8125 16.8721 30.9199 18.7662 28.5938 18.7662H27.819C26.0927 18.7662 24.688 20.1718 24.6876 21.8996L24.6874 22.5404L22.1618 19.7826C21.5702 19.1368 20.7287 18.7662 19.8533 18.7662H13.125C12.3482 18.7662 11.7188 19.3964 11.7188 20.1737C11.7188 20.951 12.3482 21.5811 13.125 21.5811H19.8534C19.9427 21.5811 20.0286 21.6188 20.0886 21.6845L23.754 25.687C24.3632 26.353 25.3005 26.5611 26.1251 26.24C26.9601 25.915 27.4995 25.1255 27.4995 24.2292L27.5001 21.9001C27.5001 21.7241 27.6433 21.5811 27.819 21.5811H28.5938C32.4709 21.5811 35.625 18.4243 35.625 14.5438V7.03732C35.625 3.15685 32.4709 0 28.5938 0H7.03126C3.15414 0 1.52588e-05 3.15685 1.52588e-05 7.03732V14.5438C1.52588e-05 18.4243 3.15414 21.5811 7.03126 21.5811ZM12.3476 15.1068H22.1522C22.929 15.1068 23.5584 14.4766 23.5584 13.6993C23.5584 12.922 22.929 12.2919 22.1522 12.2919H12.3476C11.5708 12.2919 10.9414 12.922 10.9414 13.6993C10.9414 14.4766 11.571 15.1068 12.3476 15.1068ZM88.9688 0H67.4062C63.5291 0 60.375 3.15685 60.375 7.03732V14.5438C60.375 18.4243 63.5291 21.5811 67.4062 21.5811C67.6971 21.5811 68.5048 21.3936 68.4999 21.9003L68.5005 24.229C68.5005 25.1257 69.0399 25.9152 69.8749 26.2402C70.6982 26.5607 71.6368 26.353 72.2462 25.687L75.9112 21.6847C75.9714 21.6188 76.0573 21.5811 76.1466 21.5811H88.9688C92.8459 21.5811 96 18.4243 96 14.5438V7.03732C96 3.15685 92.8459 0 88.9688 0ZM93.1875 14.5438C93.1875 16.8721 91.2949 18.7662 88.9688 18.7662H76.1466C75.2711 18.7662 74.4298 19.1366 73.8379 19.7828L71.3124 22.5404L71.3122 21.8996C71.3119 20.1718 69.9071 18.7662 68.1808 18.7662H67.4062C65.0801 18.7662 63.1875 16.8721 63.1875 14.5438V7.03732C63.1875 4.709 65.0801 2.81493 67.4062 2.81493H88.9688C91.2949 2.81493 93.1875 4.709 93.1875 7.03732V14.5438ZM83.6524 6.662H73.8478C73.071 6.662 72.4416 7.29217 72.4416 8.06946C72.4416 8.84676 73.071 9.47693 73.8478 9.47693H83.6524C84.4292 9.47693 85.0586 8.84676 85.0586 8.06946C85.0586 7.29217 84.429 6.662 83.6524 6.662ZM83.6524 12.2919H73.8478C73.071 12.2919 72.4416 12.922 72.4416 13.6993C72.4416 14.4766 73.071 15.1068 73.8478 15.1068H83.6524C84.4292 15.1068 85.0586 14.4766 85.0586 13.6993C85.0586 12.922 84.429 12.2919 83.6524 12.2919Z" fill="#E6514A"/>
</svg>
