<svg width="52" height="52" viewBox="0 0 52 52" fill="none" xmlns="http://www.w3.org/2000/svg">
<path d="M51.2383 0H0.761749C0.341077 0 3.05176e-05 0.341047 3.05176e-05 0.761719V51.2383C3.05176e-05 51.659 0.341077 52 0.761749 52H51.2383C51.659 52 52 51.659 52 51.2383V0.761719C52 0.341047 51.659 0 51.2383 0ZM50.4766 50.4766H1.52347V1.52344H50.4766V50.4766Z" fill="#3035C4"/>
<path d="M48.1914 3.04688H3.80862C3.38795 3.04688 3.04691 3.38792 3.04691 3.80859V8.37891C3.04691 8.79958 3.38795 9.14062 3.80862 9.14062C4.2293 9.14062 4.57034 8.79958 4.57034 8.37891V4.57031H47.4297V47.4297H4.57034V11.4258C4.57034 11.0051 4.2293 10.6641 3.80862 10.6641C3.38795 10.6641 3.04691 11.0051 3.04691 11.4258V48.1914C3.04691 48.6121 3.38795 48.9531 3.80862 48.9531H48.1914C48.6121 48.9531 48.9532 48.6121 48.9532 48.1914V3.80859C48.9532 3.38792 48.6121 3.04688 48.1914 3.04688Z" fill="#3035C4"/>
<path d="M31.0274 34.9375H25.8603L32.739 23.2641C33.4464 22.064 33.8204 20.6921 33.8204 19.2969C33.8204 14.9847 30.3122 11.4766 26 11.4766C21.6879 11.4766 18.1797 14.9847 18.1797 19.2969C18.1797 20.837 19.4326 22.0898 20.9727 22.0898C22.5128 22.0898 23.7657 20.837 23.7657 19.2969C23.7657 18.0648 24.768 17.0625 26 17.0625C27.2321 17.0625 28.2344 18.0648 28.2344 19.2969C28.2344 19.6952 28.128 20.0862 27.9267 20.4279L18.5665 36.3126C18.0589 37.1739 18.0517 38.2482 18.5478 39.1162C19.0437 39.9842 19.9729 40.5234 20.9727 40.5234H31.0274C32.5675 40.5234 33.8204 39.2706 33.8204 37.7305C33.8204 36.1904 32.5675 34.9375 31.0274 34.9375ZM31.0274 39.0001H20.9727C20.5183 39.0001 20.0959 38.7549 19.8704 38.3605C19.645 37.9659 19.6482 37.4777 19.8789 37.0862L29.2391 21.2016C29.5785 20.6256 29.7579 19.9671 29.7579 19.2969C29.7579 17.2248 28.0721 15.5391 26 15.5391C23.928 15.5391 22.2422 17.2248 22.2422 19.2969C22.2422 19.9969 21.6728 20.5664 20.9727 20.5664C20.2726 20.5664 19.7032 19.9969 19.7032 19.2969C19.7032 15.8248 22.5279 13 26 13C29.4722 13 32.2969 15.8248 32.2969 19.2969C32.2969 20.4203 31.996 21.5246 31.4265 22.4906L23.8711 35.3126C23.7323 35.5481 23.7303 35.8399 23.866 36.0772C24.0017 36.3146 24.254 36.461 24.5274 36.461H31.0274C31.7275 36.461 32.2969 37.0305 32.2969 37.7306C32.2969 38.4306 31.7275 39.0001 31.0274 39.0001Z" fill="#E6514A"/>
</svg>
