<svg width="61" height="84" viewBox="0 0 61 84" fill="none" xmlns="http://www.w3.org/2000/svg">
<path d="M57.3034 60.179C56.188 54.6329 50.9472 53.6889 50.9307 53.6813V53.6815C50.8743 53.6651 51.4114 53.7988 38.1491 50.5353V50.0885H47.912C49.9244 50.0885 51.5615 48.4632 51.5615 46.4656V27.9813C51.7256 27.2941 51.7259 26.5796 51.5615 25.8909V19.1448C51.5615 18.4649 51.0064 17.9142 50.3218 17.9142C49.637 17.9142 49.0822 18.4649 49.0822 19.1448V22.6766C48.4278 22.2887 47.6803 22.0106 46.8748 21.873C46.5839 20.5905 45.511 19.5766 44.1504 19.3992C42.7321 19.2142 41.6573 18.3934 40.9557 16.9598C40.6274 16.2886 39.9842 15.8478 39.2355 15.7802C38.4862 15.7129 37.7767 16.0307 37.3327 16.6309C35.2018 19.5098 29.2779 25.9671 19.0487 25.9668C18.2705 25.9668 17.7428 25.9302 17.559 25.922C15.6793 25.8096 14.09 27.3006 14.09 29.1705V31.9981C14.09 36.5175 15.9786 40.8989 19.2713 44.0187C20.3633 45.0535 21.5679 45.9166 22.8525 46.6048V47.6276H13.1343C12.4889 47.6276 11.9639 47.1064 11.9639 46.4659V18.8132C11.9639 9.84837 19.3268 2.46131 28.2209 2.46131C28.2497 2.46131 28.2784 2.46148 28.307 2.46164C31.4936 2.47854 35.1729 3.37711 37.6801 4.75014C39.2691 5.62082 40.2506 4.92881 41.8197 4.92881C45.6497 4.92881 48.719 8.83841 49.0868 12.3547C49.0891 12.4063 49.0946 12.6125 49.0953 13.4026C49.0961 14.5906 50.4476 14.6818 50.3359 14.6323C51.0207 14.6318 51.575 14.0802 51.5745 13.4006C51.5744 13.1821 51.5762 12.3252 51.5555 12.1264C51.0571 7.23125 46.851 2.46755 41.8199 2.46755C39.8549 2.46755 39.5487 2.96203 38.8779 2.59519C36.0349 1.03808 31.8907 0.0194138 28.3204 0.000382633C18.0292 -0.0657344 9.48443 8.44531 9.48443 18.8131V46.4657C9.48443 48.4635 11.1217 50.0887 13.1341 50.0887H22.8525V50.5354L10.121 53.6679C10.1042 53.672 10.0876 53.6767 10.0709 53.6815L9.14085 53.9538C9.11292 53.962 9.08548 53.9711 9.05822 53.9811C7.39832 54.596 4.49482 56.2187 3.69808 60.1797C-0.074864 78.9946 0.0839541 78.1912 0.0748646 78.2557C-0.379608 81.4469 1.22955 83.9995 5.1005 83.9995H18.5058C19.1906 83.9995 19.7454 83.4486 19.7454 82.7689C19.7454 82.089 19.1905 81.5383 18.5058 81.5383H13.8409V69.9309C13.8409 69.251 13.286 68.7002 12.6013 68.7002C11.9166 68.7002 11.3616 69.2512 11.3616 69.9309V81.5383H5.1005C3.45383 81.5383 2.49762 81.0119 2.48175 79.2947C2.47481 78.457 2.44159 79.2735 6.1296 60.6609C6.68471 57.9008 8.70356 56.748 9.88635 56.3016L10.746 56.0499L18.0573 54.251C26.1903 63.7626 25.7088 63.2586 26.1788 63.7137C28.8934 66.3425 32.7668 66.1569 35.3161 63.1848L42.9719 54.2577L50.2552 56.0497C50.4659 56.1459 54.0915 56.779 54.872 60.6604C58.5283 79.1119 58.527 78.4531 58.52 79.2937C58.5075 80.9757 57.5909 81.5384 55.9013 81.5384H49.6846V69.9309C49.6846 69.251 49.1298 68.7002 48.445 68.7002C47.7601 68.7002 47.2053 69.2512 47.2053 69.9309V81.5383H24.2908C23.606 81.5383 23.0512 82.0892 23.0512 82.7689C23.0512 83.4488 23.6061 83.9995 24.2908 83.9995H55.9014C58.9641 83.9995 60.9712 82.3266 60.9995 79.3134C61.0099 77.9062 60.9254 78.5786 57.3034 60.179ZM46.9559 24.4118C47.9911 24.7175 48.7895 25.3947 49.0824 26.2311V27.6411C48.7895 28.4776 47.9911 29.1549 46.9559 29.4604V24.4118ZM46.9559 32.2123V31.9851C47.7307 31.843 48.4501 31.5707 49.0824 31.1958V46.4657C49.0824 47.1064 48.5573 47.6273 47.9121 47.6273H38.1491V46.6762C43.4051 43.9483 46.9559 38.4866 46.9559 32.2123ZM20.9832 42.238C18.1782 39.58 16.5696 35.8478 16.5696 31.9977C16.6433 29.3183 16.3909 28.9936 16.8216 28.591C16.9741 28.4483 17.1792 28.3654 17.4101 28.3785C26.2986 28.9098 33.9436 25.0307 38.9911 18.5358C40.352 20.9081 42.3479 21.6467 43.8277 21.8398C44.1975 21.8881 44.4767 22.2014 44.4767 22.5691C44.4767 25.9735 44.4767 28.8325 44.4767 32.2125C44.4767 44.4574 29.7101 50.5066 20.9832 42.238ZM33.428 61.5891C31.7009 63.6033 29.2831 63.5979 27.56 61.579L24.9735 58.5482H36.0359L33.428 61.5891ZM38.1469 56.0868H22.8732L20.7428 53.5904L24.3908 52.6927C24.9441 52.5567 25.3321 52.0517 25.3321 51.486L25.3323 47.6788C28.7433 48.8075 32.3456 48.7952 35.6698 47.7139C35.6931 51.6473 35.6166 51.5572 35.7389 51.9042C35.8741 52.2878 36.1962 52.5905 36.611 52.6925L40.283 53.596L38.1469 56.0868Z" fill="#3035C4"/>
</svg>
